<?xml version="1.0" encoding="utf-8" standalone="no"?>
<!DOCTYPE svg PUBLIC "-//W3C//DTD SVG 1.1//EN"
  "http://www.w3.org/Graphics/SVG/1.1/DTD/svg11.dtd">
<svg xmlns:xlink="http://www.w3.org/1999/xlink" width="486.621462pt" height="259.095103pt" viewBox="0 0 486.621462 259.095103" xmlns="http://www.w3.org/2000/svg" version="1.1">
 <metadata>
  <rdf:RDF xmlns:dc="http://purl.org/dc/elements/1.1/" xmlns:cc="http://creativecommons.org/ns#" xmlns:rdf="http://www.w3.org/1999/02/22-rdf-syntax-ns#">
   <cc:Work>
    <dc:type rdf:resource="http://purl.org/dc/dcmitype/StillImage"/>
    <dc:date>2026-09-18T16:34:41.144052</dc:date>
    <dc:format>image/svg+xml</dc:format>
    <dc:creator>
     <cc:Agent>
      <dc:title>Matplotlib v3.11.0, https://matplotlib.org/</dc:title>
     </cc:Agent>
    </dc:creator>
   </cc:Work>
  </rdf:RDF>
 </metadata>
 <defs>
  <style type="text/css">*{stroke-linejoin: round; stroke-linecap: butt}</style>
 </defs>
 <g id="figure_1">
  <g id="patch_1">
   <path d="M 0 259.095103 
L 486.621462 259.095103 
L 486.621462 0 
L 0 0 
z
" style="fill: #ffffff"/>
  </g>
  <g id="axes_1">
   <g id="patch_2">
    <path d="M 76.489063 193.608703 
L 271.730621 193.608703 
L 271.730621 32.328703 
L 76.489063 32.328703 
z
" style="fill: #ffffff"/>
   </g>
   <g id="patch_3">
    <path d="M 80.207949 48.456703 
L 117.396818 48.456703 
L 117.396818 84.296703 
L 80.207949 84.296703 
z
" clip-path="url(#p7257b9930e)" style="fill: #1f3a5f; opacity: 0.06"/>
   </g>
   <g id="line2d_1">
    <path d="M 117.396818 193.608703 
L 117.396818 32.328703 
" clip-path="url(#p7257b9930e)" style="fill: none; stroke: #e6e8ea; stroke-width: 0.7; stroke-linecap: square"/>
   </g>
   <g id="line2d_2">
    <path d="M 154.585686 193.608703 
L 154.585686 32.328703 
" clip-path="url(#p7257b9930e)" style="fill: none; stroke: #e6e8ea; stroke-width: 0.7; stroke-linecap: square"/>
   </g>
   <g id="line2d_3">
    <path d="M 191.774554 193.608703 
L 191.774554 32.328703 
" clip-path="url(#p7257b9930e)" style="fill: none; stroke: #e6e8ea; stroke-width: 0.7; stroke-linecap: square"/>
   </g>
   <g id="line2d_4">
    <path d="M 228.963422 193.608703 
L 228.963422 32.328703 
" clip-path="url(#p7257b9930e)" style="fill: none; stroke: #e6e8ea; stroke-width: 0.7; stroke-linecap: square"/>
   </g>
   <g id="line2d_5">
    <path d="M 76.489063 84.296703 
L 271.730621 84.296703 
" clip-path="url(#p7257b9930e)" style="fill: none; stroke: #e6e8ea; stroke-width: 0.7; stroke-linecap: square"/>
   </g>
   <g id="line2d_6">
    <path d="M 76.489063 120.136703 
L 271.730621 120.136703 
" clip-path="url(#p7257b9930e)" style="fill: none; stroke: #e6e8ea; stroke-width: 0.7; stroke-linecap: square"/>
   </g>
   <g id="line2d_7">
    <path d="M 76.489063 155.976703 
L 271.730621 155.976703 
" clip-path="url(#p7257b9930e)" style="fill: none; stroke: #e6e8ea; stroke-width: 0.7; stroke-linecap: square"/>
   </g>
   <g id="matplotlib.axis_1">
    <g id="xtick_1">
     <g id="line2d_8">
      <defs>
       <path id="m8035252d4e" d="M 0 0 
L 0 3 
" style="stroke: #000000; stroke-width: 0.6"/>
      </defs>
      <g>
       <use xlink:href="#m8035252d4e" x="98.802383" y="193.608703" style="stroke: #000000; stroke-width: 0.6"/>
      </g>
     </g>
     <g id="text_1">
      <!-- HIGH -->
      <g transform="translate(91.080665 204.667297) scale(0.06 -0.06)">
       <defs>
        <path id="DejaVuSans-2b" d="M 628 4666 
L 1259 4666 
L 1259 2753 
L 3553 2753 
L 3553 4666 
L 4184 4666 
L 4184 0 
L 3553 0 
L 3553 2222 
L 1259 2222 
L 1259 0 
L 628 0 
L 628 4666 
z
" transform="scale(0.015625)"/>
        <path id="DejaVuSans-2c" d="M 628 4666 
L 1259 4666 
L 1259 0 
L 628 0 
L 628 4666 
z
" transform="scale(0.015625)"/>
        <path id="DejaVuSans-2a" d="M 3809 666 
L 3809 1919 
L 2778 1919 
L 2778 2438 
L 4434 2438 
L 4434 434 
Q 4069 175 3628 42 
Q 3188 -91 2688 -91 
Q 1594 -91 976 548 
Q 359 1188 359 2328 
Q 359 3472 976 4111 
Q 1594 4750 2688 4750 
Q 3144 4750 3555 4637 
Q 3966 4525 4313 4306 
L 4313 3634 
Q 3963 3931 3569 4081 
Q 3175 4231 2741 4231 
Q 1884 4231 1454 3753 
Q 1025 3275 1025 2328 
Q 1025 1384 1454 906 
Q 1884 428 2741 428 
Q 3075 428 3337 486 
Q 3600 544 3809 666 
z
" transform="scale(0.015625)"/>
       </defs>
       <use xlink:href="#DejaVuSans-2b"/>
       <use xlink:href="#DejaVuSans-2c" transform="translate(75.203125 0)"/>
       <use xlink:href="#DejaVuSans-2a" transform="translate(104.703125 0)"/>
       <use xlink:href="#DejaVuSans-2b" transform="translate(182.1875 0)"/>
      </g>
     </g>
    </g>
    <g id="xtick_2">
     <g id="line2d_9">
      <g>
       <use xlink:href="#m8035252d4e" x="135.991252" y="193.608703" style="stroke: #000000; stroke-width: 0.6"/>
      </g>
     </g>
     <g id="text_2">
      <!-- MEDIUM -->
      <g transform="translate(123.528127 204.667297) scale(0.06 -0.06)">
       <defs>
        <path id="DejaVuSans-30" d="M 628 4666 
L 1569 4666 
L 2759 1491 
L 3956 4666 
L 4897 4666 
L 4897 0 
L 4281 0 
L 4281 4097 
L 3078 897 
L 2444 897 
L 1241 4097 
L 1241 0 
L 628 0 
L 628 4666 
z
" transform="scale(0.015625)"/>
        <path id="DejaVuSans-28" d="M 628 4666 
L 3578 4666 
L 3578 4134 
L 1259 4134 
L 1259 2753 
L 3481 2753 
L 3481 2222 
L 1259 2222 
L 1259 531 
L 3634 531 
L 3634 0 
L 628 0 
L 628 4666 
z
" transform="scale(0.015625)"/>
        <path id="DejaVuSans-27" d="M 1259 4147 
L 1259 519 
L 2022 519 
Q 2988 519 3436 956 
Q 3884 1394 3884 2338 
Q 3884 3275 3436 3711 
Q 2988 4147 2022 4147 
L 1259 4147 
z
M 628 4666 
L 1925 4666 
Q 3281 4666 3915 4102 
Q 4550 3538 4550 2338 
Q 4550 1131 3912 565 
Q 3275 0 1925 0 
L 628 0 
L 628 4666 
z
" transform="scale(0.015625)"/>
        <path id="DejaVuSans-38" d="M 556 4666 
L 1191 4666 
L 1191 1831 
Q 1191 1081 1462 751 
Q 1734 422 2344 422 
Q 2950 422 3222 751 
Q 3494 1081 3494 1831 
L 3494 4666 
L 4128 4666 
L 4128 1753 
Q 4128 841 3676 375 
Q 3225 -91 2344 -91 
Q 1459 -91 1007 375 
Q 556 841 556 1753 
L 556 4666 
z
" transform="scale(0.015625)"/>
       </defs>
       <use xlink:href="#DejaVuSans-30"/>
       <use xlink:href="#DejaVuSans-28" transform="translate(86.28125 0)"/>
       <use xlink:href="#DejaVuSans-27" transform="translate(149.46875 0)"/>
       <use xlink:href="#DejaVuSans-2c" transform="translate(226.46875 0)"/>
       <use xlink:href="#DejaVuSans-38" transform="translate(255.96875 0)"/>
       <use xlink:href="#DejaVuSans-30" transform="translate(329.15625 0)"/>
      </g>
     </g>
    </g>
    <g id="xtick_3">
     <g id="line2d_10">
      <g>
       <use xlink:href="#m8035252d4e" x="173.18012" y="193.608703" style="stroke: #000000; stroke-width: 0.6"/>
      </g>
     </g>
     <g id="text_3">
      <!-- LOW -->
      <g transform="translate(166.28762 204.667297) scale(0.06 -0.06)">
       <defs>
        <path id="DejaVuSans-2f" d="M 628 4666 
L 1259 4666 
L 1259 531 
L 3531 531 
L 3531 0 
L 628 0 
L 628 4666 
z
" transform="scale(0.015625)"/>
        <path id="DejaVuSans-32" d="M 2522 4238 
Q 1834 4238 1429 3725 
Q 1025 3213 1025 2328 
Q 1025 1447 1429 934 
Q 1834 422 2522 422 
Q 3209 422 3611 934 
Q 4013 1447 4013 2328 
Q 4013 3213 3611 3725 
Q 3209 4238 2522 4238 
z
M 2522 4750 
Q 3503 4750 4090 4092 
Q 4678 3434 4678 2328 
Q 4678 1225 4090 567 
Q 3503 -91 2522 -91 
Q 1538 -91 948 565 
Q 359 1222 359 2328 
Q 359 3434 948 4092 
Q 1538 4750 2522 4750 
z
" transform="scale(0.015625)"/>
        <path id="DejaVuSans-3a" d="M 213 4666 
L 850 4666 
L 1831 722 
L 2809 4666 
L 3519 4666 
L 4500 722 
L 5478 4666 
L 6119 4666 
L 4947 0 
L 4153 0 
L 3169 4050 
L 2175 0 
L 1381 0 
L 213 4666 
z
" transform="scale(0.015625)"/>
       </defs>
       <use xlink:href="#DejaVuSans-2f"/>
       <use xlink:href="#DejaVuSans-32" transform="translate(52.15625 0)"/>
       <use xlink:href="#DejaVuSans-3a" transform="translate(130.875 0)"/>
      </g>
     </g>
    </g>
    <g id="xtick_4">
     <g id="line2d_11">
      <g>
       <use xlink:href="#m8035252d4e" x="210.368988" y="193.608703" style="stroke: #000000; stroke-width: 0.6"/>
      </g>
     </g>
     <g id="text_4">
      <!-- SUSPECT -->
      <g transform="translate(196.732582 204.667297) scale(0.06 -0.06)">
       <defs>
        <path id="DejaVuSans-36" d="M 3425 4513 
L 3425 3897 
Q 3066 4069 2747 4153 
Q 2428 4238 2131 4238 
Q 1616 4238 1336 4038 
Q 1056 3838 1056 3469 
Q 1056 3159 1242 3001 
Q 1428 2844 1947 2747 
L 2328 2669 
Q 3034 2534 3370 2195 
Q 3706 1856 3706 1288 
Q 3706 609 3251 259 
Q 2797 -91 1919 -91 
Q 1588 -91 1214 -16 
Q 841 59 441 206 
L 441 856 
Q 825 641 1194 531 
Q 1563 422 1919 422 
Q 2459 422 2753 634 
Q 3047 847 3047 1241 
Q 3047 1584 2836 1778 
Q 2625 1972 2144 2069 
L 1759 2144 
Q 1053 2284 737 2584 
Q 422 2884 422 3419 
Q 422 4038 858 4394 
Q 1294 4750 2059 4750 
Q 2388 4750 2728 4690 
Q 3069 4631 3425 4513 
z
" transform="scale(0.015625)"/>
        <path id="DejaVuSans-33" d="M 1259 4147 
L 1259 2394 
L 2053 2394 
Q 2494 2394 2734 2622 
Q 2975 2850 2975 3272 
Q 2975 3691 2734 3919 
Q 2494 4147 2053 4147 
L 1259 4147 
z
M 628 4666 
L 2053 4666 
Q 2838 4666 3239 4311 
Q 3641 3956 3641 3272 
Q 3641 2581 3239 2228 
Q 2838 1875 2053 1875 
L 1259 1875 
L 1259 0 
L 628 0 
L 628 4666 
z
" transform="scale(0.015625)"/>
        <path id="DejaVuSans-26" d="M 4122 4306 
L 4122 3641 
Q 3803 3938 3442 4084 
Q 3081 4231 2675 4231 
Q 1875 4231 1450 3742 
Q 1025 3253 1025 2328 
Q 1025 1406 1450 917 
Q 1875 428 2675 428 
Q 3081 428 3442 575 
Q 3803 722 4122 1019 
L 4122 359 
Q 3791 134 3420 21 
Q 3050 -91 2638 -91 
Q 1578 -91 968 557 
Q 359 1206 359 2328 
Q 359 3453 968 4101 
Q 1578 4750 2638 4750 
Q 3056 4750 3426 4639 
Q 3797 4528 4122 4306 
z
" transform="scale(0.015625)"/>
        <path id="DejaVuSans-37" d="M -19 4666 
L 3928 4666 
L 3928 4134 
L 2272 4134 
L 2272 0 
L 1638 0 
L 1638 4134 
L -19 4134 
L -19 4666 
z
" transform="scale(0.015625)"/>
       </defs>
       <use xlink:href="#DejaVuSans-36"/>
       <use xlink:href="#DejaVuSans-38" transform="translate(63.484375 0)"/>
       <use xlink:href="#DejaVuSans-36" transform="translate(136.671875 0)"/>
       <use xlink:href="#DejaVuSans-33" transform="translate(200.15625 0)"/>
       <use xlink:href="#DejaVuSans-28" transform="translate(260.453125 0)"/>
       <use xlink:href="#DejaVuSans-26" transform="translate(323.640625 0)"/>
       <use xlink:href="#DejaVuSans-37" transform="translate(393.46875 0)"/>
      </g>
     </g>
    </g>
    <g id="xtick_5">
     <g id="line2d_12">
      <g>
       <use xlink:href="#m8035252d4e" x="247.557857" y="193.608703" style="stroke: #000000; stroke-width: 0.6"/>
      </g>
     </g>
     <g id="text_5">
      <!-- no result -->
      <g transform="translate(234.380825 204.667766) scale(0.06 -0.06)">
       <defs>
        <path id="DejaVuSans-51" d="M 3513 2113 
L 3513 0 
L 2938 0 
L 2938 2094 
Q 2938 2591 2744 2837 
Q 2550 3084 2163 3084 
Q 1697 3084 1428 2787 
Q 1159 2491 1159 1978 
L 1159 0 
L 581 0 
L 581 3500 
L 1159 3500 
L 1159 2956 
Q 1366 3272 1645 3428 
Q 1925 3584 2291 3584 
Q 2894 3584 3203 3211 
Q 3513 2838 3513 2113 
z
" transform="scale(0.015625)"/>
        <path id="DejaVuSans-52" d="M 1959 3097 
Q 1497 3097 1228 2736 
Q 959 2375 959 1747 
Q 959 1119 1226 758 
Q 1494 397 1959 397 
Q 2419 397 2687 759 
Q 2956 1122 2956 1747 
Q 2956 2369 2687 2733 
Q 2419 3097 1959 3097 
z
M 1959 3584 
Q 2709 3584 3137 3096 
Q 3566 2609 3566 1747 
Q 3566 888 3137 398 
Q 2709 -91 1959 -91 
Q 1206 -91 779 398 
Q 353 888 353 1747 
Q 353 2609 779 3096 
Q 1206 3584 1959 3584 
z
" transform="scale(0.015625)"/>
        <path id="DejaVuSans-3" transform="scale(0.015625)"/>
        <path id="DejaVuSans-55" d="M 2631 2963 
Q 2534 3019 2420 3045 
Q 2306 3072 2169 3072 
Q 1681 3072 1420 2755 
Q 1159 2438 1159 1844 
L 1159 0 
L 581 0 
L 581 3500 
L 1159 3500 
L 1159 2956 
Q 1341 3275 1631 3429 
Q 1922 3584 2338 3584 
Q 2397 3584 2469 3576 
Q 2541 3569 2628 3553 
L 2631 2963 
z
" transform="scale(0.015625)"/>
        <path id="DejaVuSans-48" d="M 3597 1894 
L 3597 1613 
L 953 1613 
Q 991 1019 1311 708 
Q 1631 397 2203 397 
Q 2534 397 2845 478 
Q 3156 559 3463 722 
L 3463 178 
Q 3153 47 2828 -22 
Q 2503 -91 2169 -91 
Q 1331 -91 842 396 
Q 353 884 353 1716 
Q 353 2575 817 3079 
Q 1281 3584 2069 3584 
Q 2775 3584 3186 3129 
Q 3597 2675 3597 1894 
z
M 3022 2063 
Q 3016 2534 2758 2815 
Q 2500 3097 2075 3097 
Q 1594 3097 1305 2825 
Q 1016 2553 972 2059 
L 3022 2063 
z
" transform="scale(0.015625)"/>
        <path id="DejaVuSans-56" d="M 2834 3397 
L 2834 2853 
Q 2591 2978 2328 3040 
Q 2066 3103 1784 3103 
Q 1356 3103 1142 2972 
Q 928 2841 928 2578 
Q 928 2378 1081 2264 
Q 1234 2150 1697 2047 
L 1894 2003 
Q 2506 1872 2764 1633 
Q 3022 1394 3022 966 
Q 3022 478 2636 193 
Q 2250 -91 1575 -91 
Q 1294 -91 989 -36 
Q 684 19 347 128 
L 347 722 
Q 666 556 975 473 
Q 1284 391 1588 391 
Q 1994 391 2212 530 
Q 2431 669 2431 922 
Q 2431 1156 2273 1281 
Q 2116 1406 1581 1522 
L 1381 1569 
Q 847 1681 609 1914 
Q 372 2147 372 2553 
Q 372 3047 722 3315 
Q 1072 3584 1716 3584 
Q 2034 3584 2315 3537 
Q 2597 3491 2834 3397 
z
" transform="scale(0.015625)"/>
        <path id="DejaVuSans-58" d="M 544 1381 
L 544 3500 
L 1119 3500 
L 1119 1403 
Q 1119 906 1312 657 
Q 1506 409 1894 409 
Q 2359 409 2629 706 
Q 2900 1003 2900 1516 
L 2900 3500 
L 3475 3500 
L 3475 0 
L 2900 0 
L 2900 538 
Q 2691 219 2414 64 
Q 2138 -91 1772 -91 
Q 1169 -91 856 284 
Q 544 659 544 1381 
z
M 1991 3584 
L 1991 3584 
z
" transform="scale(0.015625)"/>
        <path id="DejaVuSans-4f" d="M 603 4863 
L 1178 4863 
L 1178 0 
L 603 0 
L 603 4863 
z
" transform="scale(0.015625)"/>
        <path id="DejaVuSans-57" d="M 1172 4494 
L 1172 3500 
L 2356 3500 
L 2356 3053 
L 1172 3053 
L 1172 1153 
Q 1172 725 1289 603 
Q 1406 481 1766 481 
L 2356 481 
L 2356 0 
L 1766 0 
Q 1100 0 847 248 
Q 594 497 594 1153 
L 594 3053 
L 172 3053 
L 172 3500 
L 594 3500 
L 594 4494 
L 1172 4494 
z
" transform="scale(0.015625)"/>
       </defs>
       <use xlink:href="#DejaVuSans-51"/>
       <use xlink:href="#DejaVuSans-52" transform="translate(63.375 0)"/>
       <use xlink:href="#DejaVuSans-3" transform="translate(124.5625 0)"/>
       <use xlink:href="#DejaVuSans-55" transform="translate(156.34375 0)"/>
       <use xlink:href="#DejaVuSans-48" transform="translate(195.25 0)"/>
       <use xlink:href="#DejaVuSans-56" transform="translate(256.78125 0)"/>
       <use xlink:href="#DejaVuSans-58" transform="translate(308.875 0)"/>
       <use xlink:href="#DejaVuSans-4f" transform="translate(372.25 0)"/>
       <use xlink:href="#DejaVuSans-57" transform="translate(400.03125 0)"/>
      </g>
     </g>
    </g>
    <g id="text_6">
     <!-- reported sequence confidence -->
     <g transform="translate(113.176092 216.187922) scale(0.08 -0.08)">
      <defs>
       <path id="DejaVuSans-53" d="M 1159 525 
L 1159 -1331 
L 581 -1331 
L 581 3500 
L 1159 3500 
L 1159 2969 
Q 1341 3281 1617 3432 
Q 1894 3584 2278 3584 
Q 2916 3584 3314 3078 
Q 3713 2572 3713 1747 
Q 3713 922 3314 415 
Q 2916 -91 2278 -91 
Q 1894 -91 1617 61 
Q 1341 213 1159 525 
z
M 3116 1747 
Q 3116 2381 2855 2742 
Q 2594 3103 2138 3103 
Q 1681 3103 1420 2742 
Q 1159 2381 1159 1747 
Q 1159 1113 1420 752 
Q 1681 391 2138 391 
Q 2594 391 2855 752 
Q 3116 1113 3116 1747 
z
" transform="scale(0.015625)"/>
       <path id="DejaVuSans-47" d="M 2906 2969 
L 2906 4863 
L 3481 4863 
L 3481 0 
L 2906 0 
L 2906 525 
Q 2725 213 2448 61 
Q 2172 -91 1784 -91 
Q 1150 -91 751 415 
Q 353 922 353 1747 
Q 353 2572 751 3078 
Q 1150 3584 1784 3584 
Q 2172 3584 2448 3432 
Q 2725 3281 2906 2969 
z
M 947 1747 
Q 947 1113 1208 752 
Q 1469 391 1925 391 
Q 2381 391 2643 752 
Q 2906 1113 2906 1747 
Q 2906 2381 2643 2742 
Q 2381 3103 1925 3103 
Q 1469 3103 1208 2742 
Q 947 2381 947 1747 
z
" transform="scale(0.015625)"/>
       <path id="DejaVuSans-54" d="M 947 1747 
Q 947 1113 1208 752 
Q 1469 391 1925 391 
Q 2381 391 2643 752 
Q 2906 1113 2906 1747 
Q 2906 2381 2643 2742 
Q 2381 3103 1925 3103 
Q 1469 3103 1208 2742 
Q 947 2381 947 1747 
z
M 2906 525 
Q 2725 213 2448 61 
Q 2172 -91 1784 -91 
Q 1150 -91 751 415 
Q 353 922 353 1747 
Q 353 2572 751 3078 
Q 1150 3584 1784 3584 
Q 2172 3584 2448 3432 
Q 2725 3281 2906 2969 
L 2906 3500 
L 3481 3500 
L 3481 -1331 
L 2906 -1331 
L 2906 525 
z
" transform="scale(0.015625)"/>
       <path id="DejaVuSans-46" d="M 3122 3366 
L 3122 2828 
Q 2878 2963 2633 3030 
Q 2388 3097 2138 3097 
Q 1578 3097 1268 2742 
Q 959 2388 959 1747 
Q 959 1106 1268 751 
Q 1578 397 2138 397 
Q 2388 397 2633 464 
Q 2878 531 3122 666 
L 3122 134 
Q 2881 22 2623 -34 
Q 2366 -91 2075 -91 
Q 1284 -91 818 406 
Q 353 903 353 1747 
Q 353 2603 823 3093 
Q 1294 3584 2113 3584 
Q 2378 3584 2631 3529 
Q 2884 3475 3122 3366 
z
" transform="scale(0.015625)"/>
       <path id="DejaVuSans-13af" d="M 3431 3500 
L 3431 0 
L 2853 0 
L 2853 3053 
L 1275 3053 
L 1275 0 
L 697 0 
L 697 3053 
L 147 3053 
L 147 3500 
L 697 3500 
L 697 3744 
Q 697 4316 967 4589 
Q 1238 4863 1797 4863 
L 2375 4863 
L 2375 4384 
L 1825 4384 
Q 1516 4384 1395 4259 
Q 1275 4134 1275 3809 
L 1275 3500 
L 3431 3500 
z
M 2853 4856 
L 3431 4856 
L 3431 4128 
L 2853 4128 
L 2853 4856 
z
" transform="scale(0.015625)"/>
      </defs>
      <use xlink:href="#DejaVuSans-55"/>
      <use xlink:href="#DejaVuSans-48" transform="translate(38.90625 0)"/>
      <use xlink:href="#DejaVuSans-53" transform="translate(100.4375 0)"/>
      <use xlink:href="#DejaVuSans-52" transform="translate(163.921875 0)"/>
      <use xlink:href="#DejaVuSans-55" transform="translate(225.109375 0)"/>
      <use xlink:href="#DejaVuSans-57" transform="translate(266.21875 0)"/>
      <use xlink:href="#DejaVuSans-48" transform="translate(305.421875 0)"/>
      <use xlink:href="#DejaVuSans-47" transform="translate(366.953125 0)"/>
      <use xlink:href="#DejaVuSans-3" transform="translate(430.4375 0)"/>
      <use xlink:href="#DejaVuSans-56" transform="translate(462.21875 0)"/>
      <use xlink:href="#DejaVuSans-48" transform="translate(514.3125 0)"/>
      <use xlink:href="#DejaVuSans-54" transform="translate(575.84375 0)"/>
      <use xlink:href="#DejaVuSans-58" transform="translate(639.328125 0)"/>
      <use xlink:href="#DejaVuSans-48" transform="translate(702.703125 0)"/>
      <use xlink:href="#DejaVuSans-51" transform="translate(764.234375 0)"/>
      <use xlink:href="#DejaVuSans-46" transform="translate(827.609375 0)"/>
      <use xlink:href="#DejaVuSans-48" transform="translate(882.59375 0)"/>
      <use xlink:href="#DejaVuSans-3" transform="translate(944.125 0)"/>
      <use xlink:href="#DejaVuSans-46" transform="translate(975.90625 0)"/>
      <use xlink:href="#DejaVuSans-52" transform="translate(1030.890625 0)"/>
      <use xlink:href="#DejaVuSans-51" transform="translate(1092.078125 0)"/>
      <use xlink:href="#DejaVuSans-13af" transform="translate(1155.453125 0)"/>
      <use xlink:href="#DejaVuSans-47" transform="translate(1218.4375 0)"/>
      <use xlink:href="#DejaVuSans-48" transform="translate(1281.921875 0)"/>
      <use xlink:href="#DejaVuSans-51" transform="translate(1343.453125 0)"/>
      <use xlink:href="#DejaVuSans-46" transform="translate(1406.828125 0)"/>
      <use xlink:href="#DejaVuSans-48" transform="translate(1461.8125 0)"/>
     </g>
    </g>
   </g>
   <g id="matplotlib.axis_2">
    <g id="ytick_1">
     <g id="line2d_13">
      <defs>
       <path id="md17f4864a9" d="M 0 0 
L -3 0 
" style="stroke: #000000; stroke-width: 0.6"/>
      </defs>
      <g>
       <use xlink:href="#md17f4864a9" x="76.489063" y="66.376703" style="stroke: #000000; stroke-width: 0.6"/>
      </g>
     </g>
     <g id="text_7">
      <!-- single-copy locus, -->
      <g transform="translate(16.351875 65.355707) scale(0.06 -0.06)">
       <defs>
        <path id="DejaVuSans-4c" d="M 603 3500 
L 1178 3500 
L 1178 0 
L 603 0 
L 603 3500 
z
M 603 4863 
L 1178 4863 
L 1178 4134 
L 603 4134 
L 603 4863 
z
" transform="scale(0.015625)"/>
        <path id="DejaVuSans-4a" d="M 2906 1791 
Q 2906 2416 2648 2759 
Q 2391 3103 1925 3103 
Q 1463 3103 1205 2759 
Q 947 2416 947 1791 
Q 947 1169 1205 825 
Q 1463 481 1925 481 
Q 2391 481 2648 825 
Q 2906 1169 2906 1791 
z
M 3481 434 
Q 3481 -459 3084 -895 
Q 2688 -1331 1869 -1331 
Q 1566 -1331 1297 -1286 
Q 1028 -1241 775 -1147 
L 775 -588 
Q 1028 -725 1275 -790 
Q 1522 -856 1778 -856 
Q 2344 -856 2625 -561 
Q 2906 -266 2906 331 
L 2906 616 
Q 2728 306 2450 153 
Q 2172 0 1784 0 
Q 1141 0 747 490 
Q 353 981 353 1791 
Q 353 2603 747 3093 
Q 1141 3584 1784 3584 
Q 2172 3584 2450 3431 
Q 2728 3278 2906 2969 
L 2906 3500 
L 3481 3500 
L 3481 434 
z
" transform="scale(0.015625)"/>
        <path id="DejaVuSans-10" d="M 313 2009 
L 1997 2009 
L 1997 1497 
L 313 1497 
L 313 2009 
z
" transform="scale(0.015625)"/>
        <path id="DejaVuSans-5c" d="M 2059 -325 
Q 1816 -950 1584 -1140 
Q 1353 -1331 966 -1331 
L 506 -1331 
L 506 -850 
L 844 -850 
Q 1081 -850 1212 -737 
Q 1344 -625 1503 -206 
L 1606 56 
L 191 3500 
L 800 3500 
L 1894 763 
L 2988 3500 
L 3597 3500 
L 2059 -325 
z
" transform="scale(0.015625)"/>
        <path id="DejaVuSans-f" d="M 750 794 
L 1409 794 
L 1409 256 
L 897 -744 
L 494 -744 
L 750 256 
L 750 794 
z
" transform="scale(0.015625)"/>
       </defs>
       <use xlink:href="#DejaVuSans-56"/>
       <use xlink:href="#DejaVuSans-4c" transform="translate(52.09375 0)"/>
       <use xlink:href="#DejaVuSans-51" transform="translate(79.875 0)"/>
       <use xlink:href="#DejaVuSans-4a" transform="translate(143.25 0)"/>
       <use xlink:href="#DejaVuSans-4f" transform="translate(206.734375 0)"/>
       <use xlink:href="#DejaVuSans-48" transform="translate(234.515625 0)"/>
       <use xlink:href="#DejaVuSans-10" transform="translate(296.046875 0)"/>
       <use xlink:href="#DejaVuSans-46" transform="translate(332.125 0)"/>
       <use xlink:href="#DejaVuSans-52" transform="translate(387.109375 0)"/>
       <use xlink:href="#DejaVuSans-53" transform="translate(448.296875 0)"/>
       <use xlink:href="#DejaVuSans-5c" transform="translate(511.78125 0)"/>
       <use xlink:href="#DejaVuSans-3" transform="translate(570.96875 0)"/>
       <use xlink:href="#DejaVuSans-4f" transform="translate(602.75 0)"/>
       <use xlink:href="#DejaVuSans-52" transform="translate(630.53125 0)"/>
       <use xlink:href="#DejaVuSans-46" transform="translate(691.71875 0)"/>
       <use xlink:href="#DejaVuSans-58" transform="translate(746.703125 0)"/>
       <use xlink:href="#DejaVuSans-56" transform="translate(810.078125 0)"/>
       <use xlink:href="#DejaVuSans-f" transform="translate(862.171875 0)"/>
      </g>
      <!-- intact and supported -->
      <g transform="translate(7.2 72.557348) scale(0.06 -0.06)">
       <defs>
        <path id="DejaVuSans-44" d="M 2194 1759 
Q 1497 1759 1228 1600 
Q 959 1441 959 1056 
Q 959 750 1161 570 
Q 1363 391 1709 391 
Q 2188 391 2477 730 
Q 2766 1069 2766 1631 
L 2766 1759 
L 2194 1759 
z
M 3341 1997 
L 3341 0 
L 2766 0 
L 2766 531 
Q 2569 213 2275 61 
Q 1981 -91 1556 -91 
Q 1019 -91 701 211 
Q 384 513 384 1019 
Q 384 1609 779 1909 
Q 1175 2209 1959 2209 
L 2766 2209 
L 2766 2266 
Q 2766 2663 2505 2880 
Q 2244 3097 1772 3097 
Q 1472 3097 1187 3025 
Q 903 2953 641 2809 
L 641 3341 
Q 956 3463 1253 3523 
Q 1550 3584 1831 3584 
Q 2591 3584 2966 3190 
Q 3341 2797 3341 1997 
z
" transform="scale(0.015625)"/>
       </defs>
       <use xlink:href="#DejaVuSans-4c"/>
       <use xlink:href="#DejaVuSans-51" transform="translate(27.78125 0)"/>
       <use xlink:href="#DejaVuSans-57" transform="translate(91.15625 0)"/>
       <use xlink:href="#DejaVuSans-44" transform="translate(130.359375 0)"/>
       <use xlink:href="#DejaVuSans-46" transform="translate(191.640625 0)"/>
       <use xlink:href="#DejaVuSans-57" transform="translate(246.625 0)"/>
       <use xlink:href="#DejaVuSans-3" transform="translate(285.828125 0)"/>
       <use xlink:href="#DejaVuSans-44" transform="translate(317.609375 0)"/>
       <use xlink:href="#DejaVuSans-51" transform="translate(378.890625 0)"/>
       <use xlink:href="#DejaVuSans-47" transform="translate(442.265625 0)"/>
       <use xlink:href="#DejaVuSans-3" transform="translate(505.75 0)"/>
       <use xlink:href="#DejaVuSans-56" transform="translate(537.53125 0)"/>
       <use xlink:href="#DejaVuSans-58" transform="translate(589.625 0)"/>
       <use xlink:href="#DejaVuSans-53" transform="translate(653 0)"/>
       <use xlink:href="#DejaVuSans-53" transform="translate(716.484375 0)"/>
       <use xlink:href="#DejaVuSans-52" transform="translate(779.96875 0)"/>
       <use xlink:href="#DejaVuSans-55" transform="translate(841.15625 0)"/>
       <use xlink:href="#DejaVuSans-57" transform="translate(882.265625 0)"/>
       <use xlink:href="#DejaVuSans-48" transform="translate(921.46875 0)"/>
       <use xlink:href="#DejaVuSans-47" transform="translate(983 0)"/>
      </g>
     </g>
    </g>
    <g id="ytick_2">
     <g id="line2d_14">
      <g>
       <use xlink:href="#md17f4864a9" x="76.489063" y="102.216703" style="stroke: #000000; stroke-width: 0.6"/>
      </g>
     </g>
     <g id="text_8">
      <!-- truncated by -->
      <g transform="translate(31.469063 101.195707) scale(0.06 -0.06)">
       <defs>
        <path id="DejaVuSans-45" d="M 3116 1747 
Q 3116 2381 2855 2742 
Q 2594 3103 2138 3103 
Q 1681 3103 1420 2742 
Q 1159 2381 1159 1747 
Q 1159 1113 1420 752 
Q 1681 391 2138 391 
Q 2594 391 2855 752 
Q 3116 1113 3116 1747 
z
M 1159 2969 
Q 1341 3281 1617 3432 
Q 1894 3584 2278 3584 
Q 2916 3584 3314 3078 
Q 3713 2572 3713 1747 
Q 3713 922 3314 415 
Q 2916 -91 2278 -91 
Q 1894 -91 1617 61 
Q 1341 213 1159 525 
L 1159 0 
L 581 0 
L 581 4863 
L 1159 4863 
L 1159 2969 
z
" transform="scale(0.015625)"/>
       </defs>
       <use xlink:href="#DejaVuSans-57"/>
       <use xlink:href="#DejaVuSans-55" transform="translate(39.203125 0)"/>
       <use xlink:href="#DejaVuSans-58" transform="translate(80.3125 0)"/>
       <use xlink:href="#DejaVuSans-51" transform="translate(143.6875 0)"/>
       <use xlink:href="#DejaVuSans-46" transform="translate(207.0625 0)"/>
       <use xlink:href="#DejaVuSans-44" transform="translate(262.046875 0)"/>
       <use xlink:href="#DejaVuSans-57" transform="translate(323.328125 0)"/>
       <use xlink:href="#DejaVuSans-48" transform="translate(362.53125 0)"/>
       <use xlink:href="#DejaVuSans-47" transform="translate(424.0625 0)"/>
       <use xlink:href="#DejaVuSans-3" transform="translate(487.546875 0)"/>
       <use xlink:href="#DejaVuSans-45" transform="translate(519.328125 0)"/>
       <use xlink:href="#DejaVuSans-5c" transform="translate(582.8125 0)"/>
      </g>
      <!-- construction -->
      <g transform="translate(32.6775 108.397348) scale(0.06 -0.06)">
       <use xlink:href="#DejaVuSans-46"/>
       <use xlink:href="#DejaVuSans-52" transform="translate(54.984375 0)"/>
       <use xlink:href="#DejaVuSans-51" transform="translate(116.171875 0)"/>
       <use xlink:href="#DejaVuSans-56" transform="translate(179.546875 0)"/>
       <use xlink:href="#DejaVuSans-57" transform="translate(231.640625 0)"/>
       <use xlink:href="#DejaVuSans-55" transform="translate(270.84375 0)"/>
       <use xlink:href="#DejaVuSans-58" transform="translate(311.953125 0)"/>
       <use xlink:href="#DejaVuSans-46" transform="translate(375.328125 0)"/>
       <use xlink:href="#DejaVuSans-57" transform="translate(430.3125 0)"/>
       <use xlink:href="#DejaVuSans-4c" transform="translate(469.515625 0)"/>
       <use xlink:href="#DejaVuSans-52" transform="translate(497.296875 0)"/>
       <use xlink:href="#DejaVuSans-51" transform="translate(558.484375 0)"/>
      </g>
     </g>
    </g>
    <g id="ytick_3">
     <g id="line2d_15">
      <g>
       <use xlink:href="#md17f4864a9" x="76.489063" y="138.056703" style="stroke: #000000; stroke-width: 0.6"/>
      </g>
     </g>
     <g id="text_9">
      <!-- multi-copy locus -->
      <g transform="translate(20.68875 137.035707) scale(0.06 -0.06)">
       <defs>
        <path id="DejaVuSans-50" d="M 3328 2828 
Q 3544 3216 3844 3400 
Q 4144 3584 4550 3584 
Q 5097 3584 5394 3201 
Q 5691 2819 5691 2113 
L 5691 0 
L 5113 0 
L 5113 2094 
Q 5113 2597 4934 2840 
Q 4756 3084 4391 3084 
Q 3944 3084 3684 2787 
Q 3425 2491 3425 1978 
L 3425 0 
L 2847 0 
L 2847 2094 
Q 2847 2600 2669 2842 
Q 2491 3084 2119 3084 
Q 1678 3084 1418 2786 
Q 1159 2488 1159 1978 
L 1159 0 
L 581 0 
L 581 3500 
L 1159 3500 
L 1159 2956 
Q 1356 3278 1631 3431 
Q 1906 3584 2284 3584 
Q 2666 3584 2933 3390 
Q 3200 3197 3328 2828 
z
" transform="scale(0.015625)"/>
       </defs>
       <use xlink:href="#DejaVuSans-50"/>
       <use xlink:href="#DejaVuSans-58" transform="translate(97.40625 0)"/>
       <use xlink:href="#DejaVuSans-4f" transform="translate(160.78125 0)"/>
       <use xlink:href="#DejaVuSans-57" transform="translate(188.5625 0)"/>
       <use xlink:href="#DejaVuSans-4c" transform="translate(227.765625 0)"/>
       <use xlink:href="#DejaVuSans-10" transform="translate(255.546875 0)"/>
       <use xlink:href="#DejaVuSans-46" transform="translate(291.625 0)"/>
       <use xlink:href="#DejaVuSans-52" transform="translate(346.609375 0)"/>
       <use xlink:href="#DejaVuSans-53" transform="translate(407.796875 0)"/>
       <use xlink:href="#DejaVuSans-5c" transform="translate(471.28125 0)"/>
       <use xlink:href="#DejaVuSans-3" transform="translate(530.46875 0)"/>
       <use xlink:href="#DejaVuSans-4f" transform="translate(562.25 0)"/>
       <use xlink:href="#DejaVuSans-52" transform="translate(590.03125 0)"/>
       <use xlink:href="#DejaVuSans-46" transform="translate(651.21875 0)"/>
       <use xlink:href="#DejaVuSans-58" transform="translate(706.203125 0)"/>
       <use xlink:href="#DejaVuSans-56" transform="translate(769.578125 0)"/>
      </g>
      <!-- (2 identical copies) -->
      <g transform="translate(12.78 144.237348) scale(0.06 -0.06)">
       <defs>
        <path id="DejaVuSans-b" d="M 1984 4856 
Q 1566 4138 1362 3434 
Q 1159 2731 1159 2009 
Q 1159 1288 1364 580 
Q 1569 -128 1984 -844 
L 1484 -844 
Q 1016 -109 783 600 
Q 550 1309 550 2009 
Q 550 2706 781 3412 
Q 1013 4119 1484 4856 
L 1984 4856 
z
" transform="scale(0.015625)"/>
        <path id="DejaVuSans-15" d="M 1228 531 
L 3431 531 
L 3431 0 
L 469 0 
L 469 531 
Q 828 903 1448 1529 
Q 2069 2156 2228 2338 
Q 2531 2678 2651 2914 
Q 2772 3150 2772 3378 
Q 2772 3750 2511 3984 
Q 2250 4219 1831 4219 
Q 1534 4219 1204 4116 
Q 875 4013 500 3803 
L 500 4441 
Q 881 4594 1212 4672 
Q 1544 4750 1819 4750 
Q 2544 4750 2975 4387 
Q 3406 4025 3406 3419 
Q 3406 3131 3298 2873 
Q 3191 2616 2906 2266 
Q 2828 2175 2409 1742 
Q 1991 1309 1228 531 
z
" transform="scale(0.015625)"/>
        <path id="DejaVuSans-c" d="M 513 4856 
L 1013 4856 
Q 1481 4119 1714 3412 
Q 1947 2706 1947 2009 
Q 1947 1309 1714 600 
Q 1481 -109 1013 -844 
L 513 -844 
Q 928 -128 1133 580 
Q 1338 1288 1338 2009 
Q 1338 2731 1133 3434 
Q 928 4138 513 4856 
z
" transform="scale(0.015625)"/>
       </defs>
       <use xlink:href="#DejaVuSans-b"/>
       <use xlink:href="#DejaVuSans-15" transform="translate(39.015625 0)"/>
       <use xlink:href="#DejaVuSans-3" transform="translate(102.640625 0)"/>
       <use xlink:href="#DejaVuSans-4c" transform="translate(134.421875 0)"/>
       <use xlink:href="#DejaVuSans-47" transform="translate(162.203125 0)"/>
       <use xlink:href="#DejaVuSans-48" transform="translate(225.6875 0)"/>
       <use xlink:href="#DejaVuSans-51" transform="translate(287.21875 0)"/>
       <use xlink:href="#DejaVuSans-57" transform="translate(350.59375 0)"/>
       <use xlink:href="#DejaVuSans-4c" transform="translate(389.796875 0)"/>
       <use xlink:href="#DejaVuSans-46" transform="translate(417.578125 0)"/>
       <use xlink:href="#DejaVuSans-44" transform="translate(472.5625 0)"/>
       <use xlink:href="#DejaVuSans-4f" transform="translate(533.84375 0)"/>
       <use xlink:href="#DejaVuSans-3" transform="translate(561.625 0)"/>
       <use xlink:href="#DejaVuSans-46" transform="translate(593.40625 0)"/>
       <use xlink:href="#DejaVuSans-52" transform="translate(648.390625 0)"/>
       <use xlink:href="#DejaVuSans-53" transform="translate(709.578125 0)"/>
       <use xlink:href="#DejaVuSans-4c" transform="translate(773.0625 0)"/>
       <use xlink:href="#DejaVuSans-48" transform="translate(800.84375 0)"/>
       <use xlink:href="#DejaVuSans-56" transform="translate(862.375 0)"/>
       <use xlink:href="#DejaVuSans-c" transform="translate(914.46875 0)"/>
      </g>
     </g>
    </g>
    <g id="ytick_4">
     <g id="line2d_16">
      <g>
       <use xlink:href="#md17f4864a9" x="76.489063" y="173.896703" style="stroke: #000000; stroke-width: 0.6"/>
      </g>
     </g>
     <g id="text_10">
      <!-- degraded input -->
      <g transform="translate(23.885625 169.274887) scale(0.06 -0.06)">
       <use xlink:href="#DejaVuSans-47"/>
       <use xlink:href="#DejaVuSans-48" transform="translate(63.484375 0)"/>
       <use xlink:href="#DejaVuSans-4a" transform="translate(125.015625 0)"/>
       <use xlink:href="#DejaVuSans-55" transform="translate(188.5 0)"/>
       <use xlink:href="#DejaVuSans-44" transform="translate(229.609375 0)"/>
       <use xlink:href="#DejaVuSans-47" transform="translate(290.890625 0)"/>
       <use xlink:href="#DejaVuSans-48" transform="translate(354.375 0)"/>
       <use xlink:href="#DejaVuSans-47" transform="translate(415.90625 0)"/>
       <use xlink:href="#DejaVuSans-3" transform="translate(479.390625 0)"/>
       <use xlink:href="#DejaVuSans-4c" transform="translate(511.171875 0)"/>
       <use xlink:href="#DejaVuSans-51" transform="translate(538.953125 0)"/>
       <use xlink:href="#DejaVuSans-53" transform="translate(602.328125 0)"/>
       <use xlink:href="#DejaVuSans-58" transform="translate(665.8125 0)"/>
       <use xlink:href="#DejaVuSans-57" transform="translate(729.1875 0)"/>
      </g>
      <!-- (depth, mixture, -->
      <g transform="translate(21.219375 176.476527) scale(0.06 -0.06)">
       <defs>
        <path id="DejaVuSans-4b" d="M 3513 2113 
L 3513 0 
L 2938 0 
L 2938 2094 
Q 2938 2591 2744 2837 
Q 2550 3084 2163 3084 
Q 1697 3084 1428 2787 
Q 1159 2491 1159 1978 
L 1159 0 
L 581 0 
L 581 4863 
L 1159 4863 
L 1159 2956 
Q 1366 3272 1645 3428 
Q 1925 3584 2291 3584 
Q 2894 3584 3203 3211 
Q 3513 2838 3513 2113 
z
" transform="scale(0.015625)"/>
        <path id="DejaVuSans-5b" d="M 3513 3500 
L 2247 1797 
L 3578 0 
L 2900 0 
L 1881 1375 
L 863 0 
L 184 0 
L 1544 1831 
L 300 3500 
L 978 3500 
L 1906 2253 
L 2834 3500 
L 3513 3500 
z
" transform="scale(0.015625)"/>
       </defs>
       <use xlink:href="#DejaVuSans-b"/>
       <use xlink:href="#DejaVuSans-47" transform="translate(39.015625 0)"/>
       <use xlink:href="#DejaVuSans-48" transform="translate(102.5 0)"/>
       <use xlink:href="#DejaVuSans-53" transform="translate(164.03125 0)"/>
       <use xlink:href="#DejaVuSans-57" transform="translate(227.515625 0)"/>
       <use xlink:href="#DejaVuSans-4b" transform="translate(266.71875 0)"/>
       <use xlink:href="#DejaVuSans-f" transform="translate(330.09375 0)"/>
       <use xlink:href="#DejaVuSans-3" transform="translate(361.875 0)"/>
       <use xlink:href="#DejaVuSans-50" transform="translate(393.65625 0)"/>
       <use xlink:href="#DejaVuSans-4c" transform="translate(491.0625 0)"/>
       <use xlink:href="#DejaVuSans-5b" transform="translate(518.84375 0)"/>
       <use xlink:href="#DejaVuSans-57" transform="translate(578.03125 0)"/>
       <use xlink:href="#DejaVuSans-58" transform="translate(617.234375 0)"/>
       <use xlink:href="#DejaVuSans-55" transform="translate(680.609375 0)"/>
       <use xlink:href="#DejaVuSans-48" transform="translate(719.515625 0)"/>
       <use xlink:href="#DejaVuSans-f" transform="translate(781.046875 0)"/>
      </g>
      <!-- paralogue, negative) -->
      <g transform="translate(7.320938 183.678168) scale(0.06 -0.06)">
       <defs>
        <path id="DejaVuSans-59" d="M 191 3500 
L 800 3500 
L 1894 563 
L 2988 3500 
L 3597 3500 
L 2284 0 
L 1503 0 
L 191 3500 
z
" transform="scale(0.015625)"/>
       </defs>
       <use xlink:href="#DejaVuSans-53"/>
       <use xlink:href="#DejaVuSans-44" transform="translate(63.484375 0)"/>
       <use xlink:href="#DejaVuSans-55" transform="translate(124.765625 0)"/>
       <use xlink:href="#DejaVuSans-44" transform="translate(165.875 0)"/>
       <use xlink:href="#DejaVuSans-4f" transform="translate(227.15625 0)"/>
       <use xlink:href="#DejaVuSans-52" transform="translate(254.9375 0)"/>
       <use xlink:href="#DejaVuSans-4a" transform="translate(316.125 0)"/>
       <use xlink:href="#DejaVuSans-58" transform="translate(379.609375 0)"/>
       <use xlink:href="#DejaVuSans-48" transform="translate(442.984375 0)"/>
       <use xlink:href="#DejaVuSans-f" transform="translate(504.515625 0)"/>
       <use xlink:href="#DejaVuSans-3" transform="translate(536.296875 0)"/>
       <use xlink:href="#DejaVuSans-51" transform="translate(568.078125 0)"/>
       <use xlink:href="#DejaVuSans-48" transform="translate(631.453125 0)"/>
       <use xlink:href="#DejaVuSans-4a" transform="translate(692.984375 0)"/>
       <use xlink:href="#DejaVuSans-44" transform="translate(756.46875 0)"/>
       <use xlink:href="#DejaVuSans-57" transform="translate(817.75 0)"/>
       <use xlink:href="#DejaVuSans-4c" transform="translate(856.953125 0)"/>
       <use xlink:href="#DejaVuSans-59" transform="translate(884.734375 0)"/>
       <use xlink:href="#DejaVuSans-48" transform="translate(943.921875 0)"/>
       <use xlink:href="#DejaVuSans-c" transform="translate(1005.453125 0)"/>
      </g>
     </g>
    </g>
   </g>
   <g id="patch_4">
    <path d="M 76.489063 193.608703 
L 76.489063 32.328703 
" style="fill: none; stroke: #000000; stroke-width: 0.6; stroke-linejoin: miter; stroke-linecap: square"/>
   </g>
   <g id="patch_5">
    <path d="M 76.489063 193.608703 
L 271.730621 193.608703 
" style="fill: none; stroke: #000000; stroke-width: 0.6; stroke-linejoin: miter; stroke-linecap: square"/>
   </g>
   <g id="line2d_17">
    <defs>
     <path id="m6b6bf442ad" d="M 0 2.6 
C 0.689528 2.6 1.350908 2.326048 1.838478 1.838478 
C 2.326048 1.350908 2.6 0.689528 2.6 0 
C 2.6 -0.689528 2.326048 -1.350908 1.838478 -1.838478 
C 1.350908 -2.326048 0.689528 -2.6 0 -2.6 
C -0.689528 -2.6 -1.350908 -2.326048 -1.838478 -1.838478 
C -2.326048 -1.350908 -2.6 -0.689528 -2.6 0 
C -2.6 0.689528 -2.326048 1.350908 -1.838478 1.838478 
C -1.350908 2.326048 -0.689528 2.6 0 2.6 
z
" style="stroke: #ffffff; stroke-width: 0.6"/>
    </defs>
    <g clip-path="url(#p7257b9930e)">
     <use xlink:href="#m6b6bf442ad" x="93.563242" y="62.792273" style="fill: #2e7d5b; stroke: #ffffff; stroke-width: 0.6"/>
    </g>
   </g>
   <g id="line2d_18">
    <g clip-path="url(#p7257b9930e)">
     <use xlink:href="#m6b6bf442ad" x="102.611763" y="67.495684" style="fill: #2e7d5b; stroke: #ffffff; stroke-width: 0.6"/>
    </g>
   </g>
   <g id="line2d_19">
    <g clip-path="url(#p7257b9930e)">
     <use xlink:href="#m6b6bf442ad" x="93.670459" y="65.465946" style="fill: #2e7d5b; stroke: #ffffff; stroke-width: 0.6"/>
    </g>
   </g>
   <g id="line2d_20">
    <g clip-path="url(#p7257b9930e)">
     <use xlink:href="#m6b6bf442ad" x="98.537504" y="61.742619" style="fill: #2e7d5b; stroke: #ffffff; stroke-width: 0.6"/>
    </g>
   </g>
   <g id="line2d_21">
    <g clip-path="url(#p7257b9930e)">
     <use xlink:href="#m6b6bf442ad" x="101.768427" y="61.115225" style="fill: #2e7d5b; stroke: #ffffff; stroke-width: 0.6"/>
    </g>
   </g>
   <g id="line2d_22">
    <g clip-path="url(#p7257b9930e)">
     <use xlink:href="#m6b6bf442ad" x="97.427049" y="66.604691" style="fill: #2e7d5b; stroke: #ffffff; stroke-width: 0.6"/>
    </g>
   </g>
   <g id="line2d_23">
    <g clip-path="url(#p7257b9930e)">
     <use xlink:href="#m6b6bf442ad" x="97.925229" y="67.55883" style="fill: #2e7d5b; stroke: #ffffff; stroke-width: 0.6"/>
    </g>
   </g>
   <g id="line2d_24">
    <g clip-path="url(#p7257b9930e)">
     <use xlink:href="#m6b6bf442ad" x="101.809656" y="72.590698" style="fill: #2e7d5b; stroke: #ffffff; stroke-width: 0.6"/>
    </g>
   </g>
   <g id="line2d_25">
    <g clip-path="url(#p7257b9930e)">
     <use xlink:href="#m6b6bf442ad" x="96.073777" y="68.399797" style="fill: #2e7d5b; stroke: #ffffff; stroke-width: 0.6"/>
    </g>
   </g>
   <g id="line2d_26">
    <g clip-path="url(#p7257b9930e)">
     <use xlink:href="#m6b6bf442ad" x="101.283381" y="63.553726" style="fill: #2e7d5b; stroke: #ffffff; stroke-width: 0.6"/>
    </g>
   </g>
   <g id="line2d_27">
    <g clip-path="url(#p7257b9930e)">
     <use xlink:href="#m6b6bf442ad" x="92.499117" y="72.824853" style="fill: #2e7d5b; stroke: #ffffff; stroke-width: 0.6"/>
    </g>
   </g>
   <g id="line2d_28">
    <g clip-path="url(#p7257b9930e)">
     <use xlink:href="#m6b6bf442ad" x="133.442193" y="99.683341" style="fill: #2e7d5b; stroke: #ffffff; stroke-width: 0.6"/>
    </g>
   </g>
   <g id="line2d_29">
    <g clip-path="url(#p7257b9930e)">
     <use xlink:href="#m6b6bf442ad" x="140.944131" y="103.376554" style="fill: #2e7d5b; stroke: #ffffff; stroke-width: 0.6"/>
    </g>
   </g>
   <g id="line2d_30">
    <g clip-path="url(#p7257b9930e)">
     <use xlink:href="#m6b6bf442ad" x="135.628485" y="105.938517" style="fill: #2e7d5b; stroke: #ffffff; stroke-width: 0.6"/>
    </g>
   </g>
   <g id="line2d_31">
    <g clip-path="url(#p7257b9930e)">
     <use xlink:href="#m6b6bf442ad" x="130.052846" y="105.035402" style="fill: #2e7d5b; stroke: #ffffff; stroke-width: 0.6"/>
    </g>
   </g>
   <g id="line2d_32">
    <g clip-path="url(#p7257b9930e)">
     <use xlink:href="#m6b6bf442ad" x="134.401164" y="96.644444" style="fill: #2e7d5b; stroke: #ffffff; stroke-width: 0.6"/>
    </g>
   </g>
   <g id="line2d_33">
    <g clip-path="url(#p7257b9930e)">
     <use xlink:href="#m6b6bf442ad" x="138.020649" y="108.092896" style="fill: #2e7d5b; stroke: #ffffff; stroke-width: 0.6"/>
    </g>
   </g>
   <g id="line2d_34">
    <g clip-path="url(#p7257b9930e)">
     <use xlink:href="#m6b6bf442ad" x="132.288914" y="103.988428" style="fill: #2e7d5b; stroke: #ffffff; stroke-width: 0.6"/>
    </g>
   </g>
   <g id="line2d_35">
    <g clip-path="url(#p7257b9930e)">
     <use xlink:href="#m6b6bf442ad" x="133.439182" y="105.509236" style="fill: #2e7d5b; stroke: #ffffff; stroke-width: 0.6"/>
    </g>
   </g>
   <g id="line2d_36">
    <g clip-path="url(#p7257b9930e)">
     <use xlink:href="#m6b6bf442ad" x="213.178088" y="98.385832" style="fill: #2e7d5b; stroke: #ffffff; stroke-width: 0.6"/>
    </g>
   </g>
   <g id="line2d_37">
    <g clip-path="url(#p7257b9930e)">
     <use xlink:href="#m6b6bf442ad" x="214.540149" y="104.3638" style="fill: #2e7d5b; stroke: #ffffff; stroke-width: 0.6"/>
    </g>
   </g>
   <g id="line2d_38">
    <g clip-path="url(#p7257b9930e)">
     <use xlink:href="#m6b6bf442ad" x="212.680337" y="106.575879" style="fill: #2e7d5b; stroke: #ffffff; stroke-width: 0.6"/>
    </g>
   </g>
   <g id="line2d_39">
    <g clip-path="url(#p7257b9930e)">
     <use xlink:href="#m6b6bf442ad" x="209.465849" y="141.580065" style="fill: #2e7d5b; stroke: #ffffff; stroke-width: 0.6"/>
    </g>
   </g>
   <g id="line2d_40">
    <g clip-path="url(#p7257b9930e)">
     <use xlink:href="#m6b6bf442ad" x="215.154573" y="132.640619" style="fill: #2e7d5b; stroke: #ffffff; stroke-width: 0.6"/>
    </g>
   </g>
   <g id="line2d_41">
    <g clip-path="url(#p7257b9930e)">
     <use xlink:href="#m6b6bf442ad" x="214.791534" y="136.612078" style="fill: #2e7d5b; stroke: #ffffff; stroke-width: 0.6"/>
    </g>
   </g>
   <g id="line2d_42">
    <g clip-path="url(#p7257b9930e)">
     <use xlink:href="#m6b6bf442ad" x="210.112107" y="133.240063" style="fill: #2e7d5b; stroke: #ffffff; stroke-width: 0.6"/>
    </g>
   </g>
   <g id="line2d_43">
    <defs>
     <path id="ma44b9e699f" d="M 0 2.6 
C 0.689528 2.6 1.350908 2.326048 1.838478 1.838478 
C 2.326048 1.350908 2.6 0.689528 2.6 0 
C 2.6 -0.689528 2.326048 -1.350908 1.838478 -1.838478 
C 1.350908 -2.326048 0.689528 -2.6 0 -2.6 
C -0.689528 -2.6 -1.350908 -2.326048 -1.838478 -1.838478 
C -2.326048 -1.350908 -2.6 -0.689528 -2.6 0 
C -2.6 0.689528 -2.326048 1.350908 -1.838478 1.838478 
C -1.350908 2.326048 -0.689528 2.6 0 2.6 
z
" style="stroke: #8c2f39; stroke-width: 1.1"/>
    </defs>
    <g clip-path="url(#p7257b9930e)">
     <use xlink:href="#ma44b9e699f" x="212.877934" y="135.223618" style="fill: #ffffff; stroke: #8c2f39; stroke-width: 1.1"/>
    </g>
   </g>
   <g id="line2d_44">
    <g clip-path="url(#p7257b9930e)">
     <use xlink:href="#ma44b9e699f" x="252.25062" y="170.837482" style="fill: #ffffff; stroke: #8c2f39; stroke-width: 1.1"/>
    </g>
   </g>
   <g id="line2d_45">
    <g clip-path="url(#p7257b9930e)">
     <use xlink:href="#ma44b9e699f" x="248.339392" y="172.530101" style="fill: #ffffff; stroke: #8c2f39; stroke-width: 1.1"/>
    </g>
   </g>
   <g id="line2d_46">
    <g clip-path="url(#p7257b9930e)">
     <use xlink:href="#m6b6bf442ad" x="174.607772" y="169.765172" style="fill: #2e7d5b; stroke: #ffffff; stroke-width: 0.6"/>
    </g>
   </g>
   <g id="line2d_47">
    <g clip-path="url(#p7257b9930e)">
     <use xlink:href="#m6b6bf442ad" x="131.948739" y="177.258744" style="fill: #2e7d5b; stroke: #ffffff; stroke-width: 0.6"/>
    </g>
   </g>
   <g id="line2d_48">
    <g clip-path="url(#p7257b9930e)">
     <use xlink:href="#m6b6bf442ad" x="213.558155" y="174.808888" style="fill: #2e7d5b; stroke: #ffffff; stroke-width: 0.6"/>
    </g>
   </g>
   <g id="line2d_49">
    <g clip-path="url(#p7257b9930e)">
     <use xlink:href="#m6b6bf442ad" x="215.69321" y="169.889595" style="fill: #2e7d5b; stroke: #ffffff; stroke-width: 0.6"/>
    </g>
   </g>
   <g id="line2d_50">
    <g clip-path="url(#p7257b9930e)">
     <use xlink:href="#m6b6bf442ad" x="214.805858" y="169.388575" style="fill: #2e7d5b; stroke: #ffffff; stroke-width: 0.6"/>
    </g>
   </g>
   <g id="line2d_51">
    <g clip-path="url(#p7257b9930e)">
     <use xlink:href="#m6b6bf442ad" x="216.240427" y="175.581299" style="fill: #2e7d5b; stroke: #ffffff; stroke-width: 0.6"/>
    </g>
   </g>
   <g id="line2d_52">
    <g clip-path="url(#p7257b9930e)">
     <use xlink:href="#ma44b9e699f" x="211.72045" y="180.305337" style="fill: #ffffff; stroke: #8c2f39; stroke-width: 1.1"/>
    </g>
   </g>
   <g id="line2d_53">
    <g clip-path="url(#p7257b9930e)">
     <use xlink:href="#ma44b9e699f" x="251.18716" y="177.845147" style="fill: #ffffff; stroke: #8c2f39; stroke-width: 1.1"/>
    </g>
   </g>
   <g id="text_11">
    <!-- reported as -->
    <g style="fill: #1f3a5f" transform="translate(81.534571 50.749152) scale(0.06 -0.06)">
     <use xlink:href="#DejaVuSans-55"/>
     <use xlink:href="#DejaVuSans-48" transform="translate(38.90625 0)"/>
     <use xlink:href="#DejaVuSans-53" transform="translate(100.4375 0)"/>
     <use xlink:href="#DejaVuSans-52" transform="translate(163.921875 0)"/>
     <use xlink:href="#DejaVuSans-55" transform="translate(225.109375 0)"/>
     <use xlink:href="#DejaVuSans-57" transform="translate(266.21875 0)"/>
     <use xlink:href="#DejaVuSans-48" transform="translate(305.421875 0)"/>
     <use xlink:href="#DejaVuSans-47" transform="translate(366.953125 0)"/>
     <use xlink:href="#DejaVuSans-3" transform="translate(430.4375 0)"/>
     <use xlink:href="#DejaVuSans-44" transform="translate(462.21875 0)"/>
     <use xlink:href="#DejaVuSans-56" transform="translate(523.5 0)"/>
    </g>
    <!-- deposit-ready -->
    <g style="fill: #1f3a5f" transform="translate(78.125352 57.950792) scale(0.06 -0.06)">
     <use xlink:href="#DejaVuSans-47"/>
     <use xlink:href="#DejaVuSans-48" transform="translate(63.484375 0)"/>
     <use xlink:href="#DejaVuSans-53" transform="translate(125.015625 0)"/>
     <use xlink:href="#DejaVuSans-52" transform="translate(188.5 0)"/>
     <use xlink:href="#DejaVuSans-56" transform="translate(249.6875 0)"/>
     <use xlink:href="#DejaVuSans-4c" transform="translate(301.78125 0)"/>
     <use xlink:href="#DejaVuSans-57" transform="translate(329.5625 0)"/>
     <use xlink:href="#DejaVuSans-10" transform="translate(368.765625 0)"/>
     <use xlink:href="#DejaVuSans-55" transform="translate(404.84375 0)"/>
     <use xlink:href="#DejaVuSans-48" transform="translate(443.75 0)"/>
     <use xlink:href="#DejaVuSans-44" transform="translate(505.28125 0)"/>
     <use xlink:href="#DejaVuSans-47" transform="translate(566.5625 0)"/>
     <use xlink:href="#DejaVuSans-5c" transform="translate(630.046875 0)"/>
    </g>
   </g>
   <g id="text_12">
    <!-- a -->
    <g transform="translate(17.916595 14.038594) scale(0.09 -0.09)">
     <defs>
      <path id="DejaVuSans-Bold-44" d="M 2106 1575 
Q 1756 1575 1579 1456 
Q 1403 1338 1403 1106 
Q 1403 894 1545 773 
Q 1688 653 1941 653 
Q 2256 653 2472 879 
Q 2688 1106 2688 1447 
L 2688 1575 
L 2106 1575 
z
M 3816 1997 
L 3816 0 
L 2688 0 
L 2688 519 
Q 2463 200 2181 54 
Q 1900 -91 1497 -91 
Q 953 -91 614 226 
Q 275 544 275 1050 
Q 275 1666 698 1953 
Q 1122 2241 2028 2241 
L 2688 2241 
L 2688 2328 
Q 2688 2594 2478 2717 
Q 2269 2841 1825 2841 
Q 1466 2841 1156 2769 
Q 847 2697 581 2553 
L 581 3406 
Q 941 3494 1303 3539 
Q 1666 3584 2028 3584 
Q 2975 3584 3395 3211 
Q 3816 2838 3816 1997 
z
" transform="scale(0.015625)"/>
     </defs>
     <use xlink:href="#DejaVuSans-Bold-44"/>
    </g>
   </g>
   <g id="text_13">
    <!-- Every case that reached the top tier matched truth exactly -->
    <g transform="translate(76.489063 26.328703) scale(0.08 -0.08)">
     <use xlink:href="#DejaVuSans-28"/>
     <use xlink:href="#DejaVuSans-59" transform="translate(63.1875 0)"/>
     <use xlink:href="#DejaVuSans-48" transform="translate(122.375 0)"/>
     <use xlink:href="#DejaVuSans-55" transform="translate(183.90625 0)"/>
     <use xlink:href="#DejaVuSans-5c" transform="translate(225.015625 0)"/>
     <use xlink:href="#DejaVuSans-3" transform="translate(284.203125 0)"/>
     <use xlink:href="#DejaVuSans-46" transform="translate(315.984375 0)"/>
     <use xlink:href="#DejaVuSans-44" transform="translate(370.96875 0)"/>
     <use xlink:href="#DejaVuSans-56" transform="translate(432.25 0)"/>
     <use xlink:href="#DejaVuSans-48" transform="translate(484.34375 0)"/>
     <use xlink:href="#DejaVuSans-3" transform="translate(545.875 0)"/>
     <use xlink:href="#DejaVuSans-57" transform="translate(577.65625 0)"/>
     <use xlink:href="#DejaVuSans-4b" transform="translate(616.859375 0)"/>
     <use xlink:href="#DejaVuSans-44" transform="translate(680.234375 0)"/>
     <use xlink:href="#DejaVuSans-57" transform="translate(741.515625 0)"/>
     <use xlink:href="#DejaVuSans-3" transform="translate(780.71875 0)"/>
     <use xlink:href="#DejaVuSans-55" transform="translate(812.5 0)"/>
     <use xlink:href="#DejaVuSans-48" transform="translate(851.40625 0)"/>
     <use xlink:href="#DejaVuSans-44" transform="translate(912.9375 0)"/>
     <use xlink:href="#DejaVuSans-46" transform="translate(974.21875 0)"/>
     <use xlink:href="#DejaVuSans-4b" transform="translate(1029.203125 0)"/>
     <use xlink:href="#DejaVuSans-48" transform="translate(1092.578125 0)"/>
     <use xlink:href="#DejaVuSans-47" transform="translate(1154.109375 0)"/>
     <use xlink:href="#DejaVuSans-3" transform="translate(1217.59375 0)"/>
     <use xlink:href="#DejaVuSans-57" transform="translate(1249.375 0)"/>
     <use xlink:href="#DejaVuSans-4b" transform="translate(1288.578125 0)"/>
     <use xlink:href="#DejaVuSans-48" transform="translate(1351.953125 0)"/>
     <use xlink:href="#DejaVuSans-3" transform="translate(1413.484375 0)"/>
     <use xlink:href="#DejaVuSans-57" transform="translate(1445.265625 0)"/>
     <use xlink:href="#DejaVuSans-52" transform="translate(1484.46875 0)"/>
     <use xlink:href="#DejaVuSans-53" transform="translate(1545.65625 0)"/>
     <use xlink:href="#DejaVuSans-3" transform="translate(1609.140625 0)"/>
     <use xlink:href="#DejaVuSans-57" transform="translate(1640.921875 0)"/>
     <use xlink:href="#DejaVuSans-4c" transform="translate(1680.125 0)"/>
     <use xlink:href="#DejaVuSans-48" transform="translate(1707.90625 0)"/>
     <use xlink:href="#DejaVuSans-55" transform="translate(1769.4375 0)"/>
     <use xlink:href="#DejaVuSans-3" transform="translate(1810.546875 0)"/>
     <use xlink:href="#DejaVuSans-50" transform="translate(1842.328125 0)"/>
     <use xlink:href="#DejaVuSans-44" transform="translate(1939.734375 0)"/>
     <use xlink:href="#DejaVuSans-57" transform="translate(2001.015625 0)"/>
     <use xlink:href="#DejaVuSans-46" transform="translate(2040.21875 0)"/>
     <use xlink:href="#DejaVuSans-4b" transform="translate(2095.203125 0)"/>
     <use xlink:href="#DejaVuSans-48" transform="translate(2158.578125 0)"/>
     <use xlink:href="#DejaVuSans-47" transform="translate(2220.109375 0)"/>
     <use xlink:href="#DejaVuSans-3" transform="translate(2283.59375 0)"/>
     <use xlink:href="#DejaVuSans-57" transform="translate(2315.375 0)"/>
     <use xlink:href="#DejaVuSans-55" transform="translate(2354.578125 0)"/>
     <use xlink:href="#DejaVuSans-58" transform="translate(2395.6875 0)"/>
     <use xlink:href="#DejaVuSans-57" transform="translate(2459.0625 0)"/>
     <use xlink:href="#DejaVuSans-4b" transform="translate(2498.265625 0)"/>
     <use xlink:href="#DejaVuSans-3" transform="translate(2561.640625 0)"/>
     <use xlink:href="#DejaVuSans-48" transform="translate(2593.421875 0)"/>
     <use xlink:href="#DejaVuSans-5b" transform="translate(2653.203125 0)"/>
     <use xlink:href="#DejaVuSans-44" transform="translate(2712.390625 0)"/>
     <use xlink:href="#DejaVuSans-46" transform="translate(2773.671875 0)"/>
     <use xlink:href="#DejaVuSans-57" transform="translate(2828.65625 0)"/>
     <use xlink:href="#DejaVuSans-4f" transform="translate(2867.859375 0)"/>
     <use xlink:href="#DejaVuSans-5c" transform="translate(2895.640625 0)"/>
    </g>
   </g>
   <g id="legend_1">
    <g id="line2d_54">
     <g>
      <use xlink:href="#m6b6bf442ad" x="196.36889" y="236.953228" style="fill: #2e7d5b; stroke: #ffffff; stroke-width: 0.6"/>
     </g>
    </g>
    <g id="text_14">
     <!-- matches truth exactly -->
     <g transform="translate(204.16889 239.053228) scale(0.06 -0.06)">
      <use xlink:href="#DejaVuSans-50"/>
      <use xlink:href="#DejaVuSans-44" transform="translate(97.40625 0)"/>
      <use xlink:href="#DejaVuSans-57" transform="translate(158.6875 0)"/>
      <use xlink:href="#DejaVuSans-46" transform="translate(197.890625 0)"/>
      <use xlink:href="#DejaVuSans-4b" transform="translate(252.875 0)"/>
      <use xlink:href="#DejaVuSans-48" transform="translate(316.25 0)"/>
      <use xlink:href="#DejaVuSans-56" transform="translate(377.78125 0)"/>
      <use xlink:href="#DejaVuSans-3" transform="translate(429.875 0)"/>
      <use xlink:href="#DejaVuSans-57" transform="translate(461.65625 0)"/>
      <use xlink:href="#DejaVuSans-55" transform="translate(500.859375 0)"/>
      <use xlink:href="#DejaVuSans-58" transform="translate(541.96875 0)"/>
      <use xlink:href="#DejaVuSans-57" transform="translate(605.34375 0)"/>
      <use xlink:href="#DejaVuSans-4b" transform="translate(644.546875 0)"/>
      <use xlink:href="#DejaVuSans-3" transform="translate(707.921875 0)"/>
      <use xlink:href="#DejaVuSans-48" transform="translate(739.703125 0)"/>
      <use xlink:href="#DejaVuSans-5b" transform="translate(799.484375 0)"/>
      <use xlink:href="#DejaVuSans-44" transform="translate(858.671875 0)"/>
      <use xlink:href="#DejaVuSans-46" transform="translate(919.953125 0)"/>
      <use xlink:href="#DejaVuSans-57" transform="translate(974.9375 0)"/>
      <use xlink:href="#DejaVuSans-4f" transform="translate(1014.140625 0)"/>
      <use xlink:href="#DejaVuSans-5c" transform="translate(1041.921875 0)"/>
     </g>
    </g>
    <g id="line2d_55">
     <g>
      <use xlink:href="#ma44b9e699f" x="196.36889" y="245.953697" style="fill: #ffffff; stroke: #8c2f39; stroke-width: 1.1"/>
     </g>
    </g>
    <g id="text_15">
     <!-- does not match truth -->
     <g transform="translate(204.16889 248.053697) scale(0.06 -0.06)">
      <use xlink:href="#DejaVuSans-47"/>
      <use xlink:href="#DejaVuSans-52" transform="translate(63.484375 0)"/>
      <use xlink:href="#DejaVuSans-48" transform="translate(124.671875 0)"/>
      <use xlink:href="#DejaVuSans-56" transform="translate(186.203125 0)"/>
      <use xlink:href="#DejaVuSans-3" transform="translate(238.296875 0)"/>
      <use xlink:href="#DejaVuSans-51" transform="translate(270.078125 0)"/>
      <use xlink:href="#DejaVuSans-52" transform="translate(333.453125 0)"/>
      <use xlink:href="#DejaVuSans-57" transform="translate(394.640625 0)"/>
      <use xlink:href="#DejaVuSans-3" transform="translate(433.84375 0)"/>
      <use xlink:href="#DejaVuSans-50" transform="translate(465.625 0)"/>
      <use xlink:href="#DejaVuSans-44" transform="translate(563.03125 0)"/>
      <use xlink:href="#DejaVuSans-57" transform="translate(624.3125 0)"/>
      <use xlink:href="#DejaVuSans-46" transform="translate(663.515625 0)"/>
      <use xlink:href="#DejaVuSans-4b" transform="translate(718.5 0)"/>
      <use xlink:href="#DejaVuSans-3" transform="translate(781.875 0)"/>
      <use xlink:href="#DejaVuSans-57" transform="translate(813.65625 0)"/>
      <use xlink:href="#DejaVuSans-55" transform="translate(852.859375 0)"/>
      <use xlink:href="#DejaVuSans-58" transform="translate(893.96875 0)"/>
      <use xlink:href="#DejaVuSans-57" transform="translate(957.34375 0)"/>
      <use xlink:href="#DejaVuSans-4b" transform="translate(996.546875 0)"/>
     </g>
    </g>
   </g>
  </g>
  <g id="axes_2">
   <g id="patch_6">
    <path d="M 341.007712 193.608703 
L 475.657062 193.608703 
L 475.657062 32.328703 
L 341.007712 32.328703 
z
" style="fill: #ffffff"/>
   </g>
   <g id="line2d_56">
    <path d="M 344.239296 66.376703 
L 451.958777 66.376703 
" clip-path="url(#peda5bd7eda)" style="fill: none; stroke: #888888; stroke-width: 0.9"/>
   </g>
   <g id="line2d_57">
    <path d="M 344.239296 102.216703 
L 344.239296 102.216703 
" clip-path="url(#peda5bd7eda)" style="fill: none; stroke: #888888; stroke-width: 0.9"/>
   </g>
   <g id="line2d_58">
    <path d="M 344.239296 138.056703 
L 344.239296 138.056703 
" clip-path="url(#peda5bd7eda)" style="fill: none; stroke: #888888; stroke-width: 0.9"/>
   </g>
   <g id="line2d_59">
    <path d="M 344.239296 173.896703 
L 344.239296 173.896703 
" clip-path="url(#peda5bd7eda)" style="fill: none; stroke: #888888; stroke-width: 0.9"/>
   </g>
   <g id="matplotlib.axis_3">
    <g id="xtick_6">
     <g id="line2d_60">
      <g>
       <use xlink:href="#m8035252d4e" x="344.239296" y="193.608703" style="stroke: #000000; stroke-width: 0.6"/>
      </g>
     </g>
     <g id="text_16">
      <!-- 0 -->
      <g transform="translate(342.330546 204.667297) scale(0.06 -0.06)">
       <defs>
        <path id="DejaVuSans-13" d="M 2034 4250 
Q 1547 4250 1301 3770 
Q 1056 3291 1056 2328 
Q 1056 1369 1301 889 
Q 1547 409 2034 409 
Q 2525 409 2770 889 
Q 3016 1369 3016 2328 
Q 3016 3291 2770 3770 
Q 2525 4250 2034 4250 
z
M 2034 4750 
Q 2819 4750 3233 4129 
Q 3647 3509 3647 2328 
Q 3647 1150 3233 529 
Q 2819 -91 2034 -91 
Q 1250 -91 836 529 
Q 422 1150 422 2328 
Q 422 3509 836 4129 
Q 1250 4750 2034 4750 
z
" transform="scale(0.015625)"/>
       </defs>
       <use xlink:href="#DejaVuSans-13"/>
      </g>
     </g>
    </g>
    <g id="xtick_7">
     <g id="line2d_61">
      <g>
       <use xlink:href="#m8035252d4e" x="398.099037" y="193.608703" style="stroke: #000000; stroke-width: 0.6"/>
      </g>
     </g>
     <g id="text_17">
      <!-- 50 -->
      <g transform="translate(394.281537 204.667297) scale(0.06 -0.06)">
       <defs>
        <path id="DejaVuSans-18" d="M 691 4666 
L 3169 4666 
L 3169 4134 
L 1269 4134 
L 1269 2991 
Q 1406 3038 1543 3061 
Q 1681 3084 1819 3084 
Q 2600 3084 3056 2656 
Q 3513 2228 3513 1497 
Q 3513 744 3044 326 
Q 2575 -91 1722 -91 
Q 1428 -91 1123 -41 
Q 819 9 494 109 
L 494 744 
Q 775 591 1075 516 
Q 1375 441 1709 441 
Q 2250 441 2565 725 
Q 2881 1009 2881 1497 
Q 2881 1984 2565 2268 
Q 2250 2553 1709 2553 
Q 1456 2553 1204 2497 
Q 953 2441 691 2322 
L 691 4666 
z
" transform="scale(0.015625)"/>
       </defs>
       <use xlink:href="#DejaVuSans-18"/>
       <use xlink:href="#DejaVuSans-13" transform="translate(63.625 0)"/>
      </g>
     </g>
    </g>
    <g id="xtick_8">
     <g id="line2d_62">
      <g>
       <use xlink:href="#m8035252d4e" x="451.958777" y="193.608703" style="stroke: #000000; stroke-width: 0.6"/>
      </g>
     </g>
     <g id="text_18">
      <!-- 100 -->
      <g transform="translate(446.232527 204.667297) scale(0.06 -0.06)">
       <defs>
        <path id="DejaVuSans-14" d="M 794 531 
L 1825 531 
L 1825 4091 
L 703 3866 
L 703 4441 
L 1819 4666 
L 2450 4666 
L 2450 531 
L 3481 531 
L 3481 0 
L 794 0 
L 794 531 
z
" transform="scale(0.015625)"/>
       </defs>
       <use xlink:href="#DejaVuSans-14"/>
       <use xlink:href="#DejaVuSans-13" transform="translate(63.625 0)"/>
       <use xlink:href="#DejaVuSans-13" transform="translate(127.25 0)"/>
      </g>
     </g>
    </g>
    <g id="text_19">
     <!-- cases reaching the top tier (%) -->
     <g transform="translate(346.481762 216.187453) scale(0.08 -0.08)">
      <defs>
       <path id="DejaVuSans-8" d="M 4653 2053 
Q 4381 2053 4226 1822 
Q 4072 1591 4072 1178 
Q 4072 772 4226 539 
Q 4381 306 4653 306 
Q 4919 306 5073 539 
Q 5228 772 5228 1178 
Q 5228 1588 5073 1820 
Q 4919 2053 4653 2053 
z
M 4653 2450 
Q 5147 2450 5437 2106 
Q 5728 1763 5728 1178 
Q 5728 594 5436 251 
Q 5144 -91 4653 -91 
Q 4153 -91 3862 251 
Q 3572 594 3572 1178 
Q 3572 1766 3864 2108 
Q 4156 2450 4653 2450 
z
M 1428 4353 
Q 1159 4353 1004 4120 
Q 850 3888 850 3481 
Q 850 3069 1003 2837 
Q 1156 2606 1428 2606 
Q 1700 2606 1854 2837 
Q 2009 3069 2009 3481 
Q 2009 3884 1853 4118 
Q 1697 4353 1428 4353 
z
M 4250 4750 
L 4750 4750 
L 1831 -91 
L 1331 -91 
L 4250 4750 
z
M 1428 4750 
Q 1922 4750 2215 4408 
Q 2509 4066 2509 3481 
Q 2509 2891 2217 2550 
Q 1925 2209 1428 2209 
Q 931 2209 642 2551 
Q 353 2894 353 3481 
Q 353 4063 643 4406 
Q 934 4750 1428 4750 
z
" transform="scale(0.015625)"/>
      </defs>
      <use xlink:href="#DejaVuSans-46"/>
      <use xlink:href="#DejaVuSans-44" transform="translate(54.984375 0)"/>
      <use xlink:href="#DejaVuSans-56" transform="translate(116.265625 0)"/>
      <use xlink:href="#DejaVuSans-48" transform="translate(168.359375 0)"/>
      <use xlink:href="#DejaVuSans-56" transform="translate(229.890625 0)"/>
      <use xlink:href="#DejaVuSans-3" transform="translate(281.984375 0)"/>
      <use xlink:href="#DejaVuSans-55" transform="translate(313.765625 0)"/>
      <use xlink:href="#DejaVuSans-48" transform="translate(352.671875 0)"/>
      <use xlink:href="#DejaVuSans-44" transform="translate(414.203125 0)"/>
      <use xlink:href="#DejaVuSans-46" transform="translate(475.484375 0)"/>
      <use xlink:href="#DejaVuSans-4b" transform="translate(530.46875 0)"/>
      <use xlink:href="#DejaVuSans-4c" transform="translate(593.84375 0)"/>
      <use xlink:href="#DejaVuSans-51" transform="translate(621.625 0)"/>
      <use xlink:href="#DejaVuSans-4a" transform="translate(685 0)"/>
      <use xlink:href="#DejaVuSans-3" transform="translate(748.484375 0)"/>
      <use xlink:href="#DejaVuSans-57" transform="translate(780.265625 0)"/>
      <use xlink:href="#DejaVuSans-4b" transform="translate(819.46875 0)"/>
      <use xlink:href="#DejaVuSans-48" transform="translate(882.84375 0)"/>
      <use xlink:href="#DejaVuSans-3" transform="translate(944.375 0)"/>
      <use xlink:href="#DejaVuSans-57" transform="translate(976.15625 0)"/>
      <use xlink:href="#DejaVuSans-52" transform="translate(1015.359375 0)"/>
      <use xlink:href="#DejaVuSans-53" transform="translate(1076.546875 0)"/>
      <use xlink:href="#DejaVuSans-3" transform="translate(1140.03125 0)"/>
      <use xlink:href="#DejaVuSans-57" transform="translate(1171.8125 0)"/>
      <use xlink:href="#DejaVuSans-4c" transform="translate(1211.015625 0)"/>
      <use xlink:href="#DejaVuSans-48" transform="translate(1238.796875 0)"/>
      <use xlink:href="#DejaVuSans-55" transform="translate(1300.328125 0)"/>
      <use xlink:href="#DejaVuSans-3" transform="translate(1341.4375 0)"/>
      <use xlink:href="#DejaVuSans-b" transform="translate(1373.21875 0)"/>
      <use xlink:href="#DejaVuSans-8" transform="translate(1412.234375 0)"/>
      <use xlink:href="#DejaVuSans-c" transform="translate(1507.25 0)"/>
     </g>
    </g>
   </g>
   <g id="matplotlib.axis_4">
    <g id="ytick_5">
     <g id="line2d_63">
      <g>
       <use xlink:href="#md17f4864a9" x="341.007712" y="66.376703" style="stroke: #000000; stroke-width: 0.6"/>
      </g>
     </g>
    </g>
    <g id="ytick_6">
     <g id="line2d_64">
      <g>
       <use xlink:href="#md17f4864a9" x="341.007712" y="102.216703" style="stroke: #000000; stroke-width: 0.6"/>
      </g>
     </g>
    </g>
    <g id="ytick_7">
     <g id="line2d_65">
      <g>
       <use xlink:href="#md17f4864a9" x="341.007712" y="138.056703" style="stroke: #000000; stroke-width: 0.6"/>
      </g>
     </g>
    </g>
    <g id="ytick_8">
     <g id="line2d_66">
      <g>
       <use xlink:href="#md17f4864a9" x="341.007712" y="173.896703" style="stroke: #000000; stroke-width: 0.6"/>
      </g>
     </g>
    </g>
   </g>
   <g id="patch_7">
    <path d="M 341.007712 193.608703 
L 341.007712 32.328703 
" style="fill: none; stroke: #000000; stroke-width: 0.6; stroke-linejoin: miter; stroke-linecap: square"/>
   </g>
   <g id="patch_8">
    <path d="M 341.007712 193.608703 
L 475.657062 193.608703 
" style="fill: none; stroke: #000000; stroke-width: 0.6; stroke-linejoin: miter; stroke-linecap: square"/>
   </g>
   <g id="line2d_67">
    <defs>
     <path id="m48379219e4" d="M 0 3.5 
C 0.928211 3.5 1.81853 3.131218 2.474874 2.474874 
C 3.131218 1.81853 3.5 0.928211 3.5 0 
C 3.5 -0.928211 3.131218 -1.81853 2.474874 -2.474874 
C 1.81853 -3.131218 0.928211 -3.5 0 -3.5 
C -0.928211 -3.5 -1.81853 -3.131218 -2.474874 -2.474874 
C -3.131218 -1.81853 -3.5 -0.928211 -3.5 0 
C -3.5 0.928211 -3.131218 1.81853 -2.474874 2.474874 
C -1.81853 3.131218 -0.928211 3.5 0 3.5 
z
" style="stroke: #1f3a5f; stroke-width: 1.2"/>
    </defs>
    <g clip-path="url(#peda5bd7eda)">
     <use xlink:href="#m48379219e4" x="451.958777" y="66.376703" style="fill: #1f3a5f; stroke: #1f3a5f; stroke-width: 1.2"/>
    </g>
   </g>
   <g id="text_20">
    <!-- 11/11 -->
    <g style="fill: #1f3a5f" transform="translate(456.806153 68.06518) scale(0.065 -0.065)">
     <defs>
      <path id="DejaVuSans-12" d="M 1625 4666 
L 2156 4666 
L 531 -594 
L 0 -594 
L 1625 4666 
z
" transform="scale(0.015625)"/>
     </defs>
     <use xlink:href="#DejaVuSans-14"/>
     <use xlink:href="#DejaVuSans-14" transform="translate(63.625 0)"/>
     <use xlink:href="#DejaVuSans-12" transform="translate(127.25 0)"/>
     <use xlink:href="#DejaVuSans-14" transform="translate(160.9375 0)"/>
     <use xlink:href="#DejaVuSans-14" transform="translate(224.5625 0)"/>
    </g>
   </g>
   <g id="line2d_68">
    <defs>
     <path id="m43056cc9e1" d="M 0 3.5 
C 0.928211 3.5 1.81853 3.131218 2.474874 2.474874 
C 3.131218 1.81853 3.5 0.928211 3.5 0 
C 3.5 -0.928211 3.131218 -1.81853 2.474874 -2.474874 
C 1.81853 -3.131218 0.928211 -3.5 0 -3.5 
C -0.928211 -3.5 -1.81853 -3.131218 -2.474874 -2.474874 
C -3.131218 -1.81853 -3.5 -0.928211 -3.5 0 
C -3.5 0.928211 -3.131218 1.81853 -2.474874 2.474874 
C -1.81853 3.131218 -0.928211 3.5 0 3.5 
z
" style="stroke: #1f3a5f; stroke-width: 1.2"/>
    </defs>
    <g clip-path="url(#peda5bd7eda)">
     <use xlink:href="#m43056cc9e1" x="344.239296" y="102.216703" style="fill: #ffffff; stroke: #1f3a5f; stroke-width: 1.2"/>
    </g>
   </g>
   <g id="text_21">
    <!-- 0/11 -->
    <g style="fill: #888888" transform="translate(349.086673 103.90518) scale(0.065 -0.065)">
     <use xlink:href="#DejaVuSans-13"/>
     <use xlink:href="#DejaVuSans-12" transform="translate(63.625 0)"/>
     <use xlink:href="#DejaVuSans-14" transform="translate(97.3125 0)"/>
     <use xlink:href="#DejaVuSans-14" transform="translate(160.9375 0)"/>
    </g>
   </g>
   <g id="text_22">
    <!-- 11 withheld but exact -->
    <g style="fill: #2e7d5b" transform="translate(349.086673 114.47557) scale(0.058 -0.058)">
     <defs>
      <path id="DejaVuSans-5a" d="M 269 3500 
L 844 3500 
L 1563 769 
L 2278 3500 
L 2956 3500 
L 3675 769 
L 4391 3500 
L 4966 3500 
L 4050 0 
L 3372 0 
L 2619 2869 
L 1863 0 
L 1184 0 
L 269 3500 
z
" transform="scale(0.015625)"/>
     </defs>
     <use xlink:href="#DejaVuSans-14"/>
     <use xlink:href="#DejaVuSans-14" transform="translate(63.625 0)"/>
     <use xlink:href="#DejaVuSans-3" transform="translate(127.25 0)"/>
     <use xlink:href="#DejaVuSans-5a" transform="translate(159.03125 0)"/>
     <use xlink:href="#DejaVuSans-4c" transform="translate(240.8125 0)"/>
     <use xlink:href="#DejaVuSans-57" transform="translate(268.59375 0)"/>
     <use xlink:href="#DejaVuSans-4b" transform="translate(307.796875 0)"/>
     <use xlink:href="#DejaVuSans-4b" transform="translate(371.171875 0)"/>
     <use xlink:href="#DejaVuSans-48" transform="translate(434.546875 0)"/>
     <use xlink:href="#DejaVuSans-4f" transform="translate(496.078125 0)"/>
     <use xlink:href="#DejaVuSans-47" transform="translate(523.859375 0)"/>
     <use xlink:href="#DejaVuSans-3" transform="translate(587.34375 0)"/>
     <use xlink:href="#DejaVuSans-45" transform="translate(619.125 0)"/>
     <use xlink:href="#DejaVuSans-58" transform="translate(682.609375 0)"/>
     <use xlink:href="#DejaVuSans-57" transform="translate(745.984375 0)"/>
     <use xlink:href="#DejaVuSans-3" transform="translate(785.1875 0)"/>
     <use xlink:href="#DejaVuSans-48" transform="translate(816.96875 0)"/>
     <use xlink:href="#DejaVuSans-5b" transform="translate(876.75 0)"/>
     <use xlink:href="#DejaVuSans-44" transform="translate(935.9375 0)"/>
     <use xlink:href="#DejaVuSans-46" transform="translate(997.21875 0)"/>
     <use xlink:href="#DejaVuSans-57" transform="translate(1052.203125 0)"/>
    </g>
   </g>
   <g id="line2d_69">
    <g clip-path="url(#peda5bd7eda)">
     <use xlink:href="#m43056cc9e1" x="344.239296" y="138.056703" style="fill: #ffffff; stroke: #1f3a5f; stroke-width: 1.2"/>
    </g>
   </g>
   <g id="text_23">
    <!-- 0/5 -->
    <g style="fill: #888888" transform="translate(349.086673 139.74518) scale(0.065 -0.065)">
     <use xlink:href="#DejaVuSans-13"/>
     <use xlink:href="#DejaVuSans-12" transform="translate(63.625 0)"/>
     <use xlink:href="#DejaVuSans-18" transform="translate(97.3125 0)"/>
    </g>
   </g>
   <g id="text_24">
    <!-- 4 withheld but exact -->
    <g style="fill: #2e7d5b" transform="translate(349.086673 150.31557) scale(0.058 -0.058)">
     <defs>
      <path id="DejaVuSans-17" d="M 2419 4116 
L 825 1625 
L 2419 1625 
L 2419 4116 
z
M 2253 4666 
L 3047 4666 
L 3047 1625 
L 3713 1625 
L 3713 1100 
L 3047 1100 
L 3047 0 
L 2419 0 
L 2419 1100 
L 313 1100 
L 313 1709 
L 2253 4666 
z
" transform="scale(0.015625)"/>
     </defs>
     <use xlink:href="#DejaVuSans-17"/>
     <use xlink:href="#DejaVuSans-3" transform="translate(63.625 0)"/>
     <use xlink:href="#DejaVuSans-5a" transform="translate(95.40625 0)"/>
     <use xlink:href="#DejaVuSans-4c" transform="translate(177.1875 0)"/>
     <use xlink:href="#DejaVuSans-57" transform="translate(204.96875 0)"/>
     <use xlink:href="#DejaVuSans-4b" transform="translate(244.171875 0)"/>
     <use xlink:href="#DejaVuSans-4b" transform="translate(307.546875 0)"/>
     <use xlink:href="#DejaVuSans-48" transform="translate(370.921875 0)"/>
     <use xlink:href="#DejaVuSans-4f" transform="translate(432.453125 0)"/>
     <use xlink:href="#DejaVuSans-47" transform="translate(460.234375 0)"/>
     <use xlink:href="#DejaVuSans-3" transform="translate(523.71875 0)"/>
     <use xlink:href="#DejaVuSans-45" transform="translate(555.5 0)"/>
     <use xlink:href="#DejaVuSans-58" transform="translate(618.984375 0)"/>
     <use xlink:href="#DejaVuSans-57" transform="translate(682.359375 0)"/>
     <use xlink:href="#DejaVuSans-3" transform="translate(721.5625 0)"/>
     <use xlink:href="#DejaVuSans-48" transform="translate(753.34375 0)"/>
     <use xlink:href="#DejaVuSans-5b" transform="translate(813.125 0)"/>
     <use xlink:href="#DejaVuSans-44" transform="translate(872.3125 0)"/>
     <use xlink:href="#DejaVuSans-46" transform="translate(933.59375 0)"/>
     <use xlink:href="#DejaVuSans-57" transform="translate(988.578125 0)"/>
    </g>
   </g>
   <g id="line2d_70">
    <g clip-path="url(#peda5bd7eda)">
     <use xlink:href="#m43056cc9e1" x="344.239296" y="173.896703" style="fill: #ffffff; stroke: #1f3a5f; stroke-width: 1.2"/>
    </g>
   </g>
   <g id="text_25">
    <!-- 0/10 -->
    <g style="fill: #888888" transform="translate(349.086673 175.58518) scale(0.065 -0.065)">
     <use xlink:href="#DejaVuSans-13"/>
     <use xlink:href="#DejaVuSans-12" transform="translate(63.625 0)"/>
     <use xlink:href="#DejaVuSans-14" transform="translate(97.3125 0)"/>
     <use xlink:href="#DejaVuSans-13" transform="translate(160.9375 0)"/>
    </g>
   </g>
   <g id="text_26">
    <!-- 6 withheld but exact -->
    <g style="fill: #2e7d5b" transform="translate(349.086673 186.15557) scale(0.058 -0.058)">
     <defs>
      <path id="DejaVuSans-19" d="M 2113 2584 
Q 1688 2584 1439 2293 
Q 1191 2003 1191 1497 
Q 1191 994 1439 701 
Q 1688 409 2113 409 
Q 2538 409 2786 701 
Q 3034 994 3034 1497 
Q 3034 2003 2786 2293 
Q 2538 2584 2113 2584 
z
M 3366 4563 
L 3366 3988 
Q 3128 4100 2886 4159 
Q 2644 4219 2406 4219 
Q 1781 4219 1451 3797 
Q 1122 3375 1075 2522 
Q 1259 2794 1537 2939 
Q 1816 3084 2150 3084 
Q 2853 3084 3261 2657 
Q 3669 2231 3669 1497 
Q 3669 778 3244 343 
Q 2819 -91 2113 -91 
Q 1303 -91 875 529 
Q 447 1150 447 2328 
Q 447 3434 972 4092 
Q 1497 4750 2381 4750 
Q 2619 4750 2861 4703 
Q 3103 4656 3366 4563 
z
" transform="scale(0.015625)"/>
     </defs>
     <use xlink:href="#DejaVuSans-19"/>
     <use xlink:href="#DejaVuSans-3" transform="translate(63.625 0)"/>
     <use xlink:href="#DejaVuSans-5a" transform="translate(95.40625 0)"/>
     <use xlink:href="#DejaVuSans-4c" transform="translate(177.1875 0)"/>
     <use xlink:href="#DejaVuSans-57" transform="translate(204.96875 0)"/>
     <use xlink:href="#DejaVuSans-4b" transform="translate(244.171875 0)"/>
     <use xlink:href="#DejaVuSans-4b" transform="translate(307.546875 0)"/>
     <use xlink:href="#DejaVuSans-48" transform="translate(370.921875 0)"/>
     <use xlink:href="#DejaVuSans-4f" transform="translate(432.453125 0)"/>
     <use xlink:href="#DejaVuSans-47" transform="translate(460.234375 0)"/>
     <use xlink:href="#DejaVuSans-3" transform="translate(523.71875 0)"/>
     <use xlink:href="#DejaVuSans-45" transform="translate(555.5 0)"/>
     <use xlink:href="#DejaVuSans-58" transform="translate(618.984375 0)"/>
     <use xlink:href="#DejaVuSans-57" transform="translate(682.359375 0)"/>
     <use xlink:href="#DejaVuSans-3" transform="translate(721.5625 0)"/>
     <use xlink:href="#DejaVuSans-48" transform="translate(753.34375 0)"/>
     <use xlink:href="#DejaVuSans-5b" transform="translate(813.125 0)"/>
     <use xlink:href="#DejaVuSans-44" transform="translate(872.3125 0)"/>
     <use xlink:href="#DejaVuSans-46" transform="translate(933.59375 0)"/>
     <use xlink:href="#DejaVuSans-57" transform="translate(988.578125 0)"/>
    </g>
   </g>
   <g id="text_27">
    <!-- 0 false accepts in 37 cases -->
    <g style="fill: #8c2f39" transform="translate(344.239296 50.376519) scale(0.063 -0.063)">
     <defs>
      <path id="DejaVuSans-49" d="M 2375 4863 
L 2375 4384 
L 1825 4384 
Q 1516 4384 1395 4259 
Q 1275 4134 1275 3809 
L 1275 3500 
L 2222 3500 
L 2222 3053 
L 1275 3053 
L 1275 0 
L 697 0 
L 697 3053 
L 147 3053 
L 147 3500 
L 697 3500 
L 697 3744 
Q 697 4328 969 4595 
Q 1241 4863 1831 4863 
L 2375 4863 
z
" transform="scale(0.015625)"/>
      <path id="DejaVuSans-16" d="M 2597 2516 
Q 3050 2419 3304 2112 
Q 3559 1806 3559 1356 
Q 3559 666 3084 287 
Q 2609 -91 1734 -91 
Q 1441 -91 1130 -33 
Q 819 25 488 141 
L 488 750 
Q 750 597 1062 519 
Q 1375 441 1716 441 
Q 2309 441 2620 675 
Q 2931 909 2931 1356 
Q 2931 1769 2642 2001 
Q 2353 2234 1838 2234 
L 1294 2234 
L 1294 2753 
L 1863 2753 
Q 2328 2753 2575 2939 
Q 2822 3125 2822 3475 
Q 2822 3834 2567 4026 
Q 2313 4219 1838 4219 
Q 1578 4219 1281 4162 
Q 984 4106 628 3988 
L 628 4550 
Q 988 4650 1302 4700 
Q 1616 4750 1894 4750 
Q 2613 4750 3031 4423 
Q 3450 4097 3450 3541 
Q 3450 3153 3228 2886 
Q 3006 2619 2597 2516 
z
" transform="scale(0.015625)"/>
      <path id="DejaVuSans-1a" d="M 525 4666 
L 3525 4666 
L 3525 4397 
L 1831 0 
L 1172 0 
L 2766 4134 
L 525 4134 
L 525 4666 
z
" transform="scale(0.015625)"/>
     </defs>
     <use xlink:href="#DejaVuSans-13"/>
     <use xlink:href="#DejaVuSans-3" transform="translate(63.625 0)"/>
     <use xlink:href="#DejaVuSans-49" transform="translate(95.40625 0)"/>
     <use xlink:href="#DejaVuSans-44" transform="translate(130.609375 0)"/>
     <use xlink:href="#DejaVuSans-4f" transform="translate(191.890625 0)"/>
     <use xlink:href="#DejaVuSans-56" transform="translate(219.671875 0)"/>
     <use xlink:href="#DejaVuSans-48" transform="translate(271.765625 0)"/>
     <use xlink:href="#DejaVuSans-3" transform="translate(333.296875 0)"/>
     <use xlink:href="#DejaVuSans-44" transform="translate(365.078125 0)"/>
     <use xlink:href="#DejaVuSans-46" transform="translate(426.359375 0)"/>
     <use xlink:href="#DejaVuSans-46" transform="translate(481.34375 0)"/>
     <use xlink:href="#DejaVuSans-48" transform="translate(536.328125 0)"/>
     <use xlink:href="#DejaVuSans-53" transform="translate(597.859375 0)"/>
     <use xlink:href="#DejaVuSans-57" transform="translate(661.34375 0)"/>
     <use xlink:href="#DejaVuSans-56" transform="translate(700.546875 0)"/>
     <use xlink:href="#DejaVuSans-3" transform="translate(752.640625 0)"/>
     <use xlink:href="#DejaVuSans-4c" transform="translate(784.421875 0)"/>
     <use xlink:href="#DejaVuSans-51" transform="translate(812.203125 0)"/>
     <use xlink:href="#DejaVuSans-3" transform="translate(875.578125 0)"/>
     <use xlink:href="#DejaVuSans-16" transform="translate(907.359375 0)"/>
     <use xlink:href="#DejaVuSans-1a" transform="translate(970.984375 0)"/>
     <use xlink:href="#DejaVuSans-3" transform="translate(1034.609375 0)"/>
     <use xlink:href="#DejaVuSans-46" transform="translate(1066.390625 0)"/>
     <use xlink:href="#DejaVuSans-44" transform="translate(1121.375 0)"/>
     <use xlink:href="#DejaVuSans-56" transform="translate(1182.65625 0)"/>
     <use xlink:href="#DejaVuSans-48" transform="translate(1234.75 0)"/>
     <use xlink:href="#DejaVuSans-56" transform="translate(1296.28125 0)"/>
    </g>
   </g>
   <g id="text_28">
    <!-- b -->
    <g transform="translate(330.235764 14.038594) scale(0.09 -0.09)">
     <defs>
      <path id="DejaVuSans-Bold-45" d="M 2400 722 
Q 2759 722 2948 984 
Q 3138 1247 3138 1747 
Q 3138 2247 2948 2509 
Q 2759 2772 2400 2772 
Q 2041 2772 1848 2508 
Q 1656 2244 1656 1747 
Q 1656 1250 1848 986 
Q 2041 722 2400 722 
z
M 1656 2988 
Q 1888 3294 2169 3439 
Q 2450 3584 2816 3584 
Q 3463 3584 3878 3070 
Q 4294 2556 4294 1747 
Q 4294 938 3878 423 
Q 3463 -91 2816 -91 
Q 2450 -91 2169 54 
Q 1888 200 1656 506 
L 1656 0 
L 538 0 
L 538 4863 
L 1656 4863 
L 1656 2988 
z
" transform="scale(0.015625)"/>
     </defs>
     <use xlink:href="#DejaVuSans-Bold-45"/>
    </g>
   </g>
   <g id="text_29">
    <!-- Acceptance follows the case class, -->
    <g transform="translate(341.007712 16.726516) scale(0.08 -0.08)">
     <defs>
      <path id="DejaVuSans-24" d="M 2188 4044 
L 1331 1722 
L 3047 1722 
L 2188 4044 
z
M 1831 4666 
L 2547 4666 
L 4325 0 
L 3669 0 
L 3244 1197 
L 1141 1197 
L 716 0 
L 50 0 
L 1831 4666 
z
" transform="scale(0.015625)"/>
     </defs>
     <use xlink:href="#DejaVuSans-24"/>
     <use xlink:href="#DejaVuSans-46" transform="translate(66.65625 0)"/>
     <use xlink:href="#DejaVuSans-46" transform="translate(121.640625 0)"/>
     <use xlink:href="#DejaVuSans-48" transform="translate(176.625 0)"/>
     <use xlink:href="#DejaVuSans-53" transform="translate(238.15625 0)"/>
     <use xlink:href="#DejaVuSans-57" transform="translate(301.640625 0)"/>
     <use xlink:href="#DejaVuSans-44" transform="translate(340.84375 0)"/>
     <use xlink:href="#DejaVuSans-51" transform="translate(402.125 0)"/>
     <use xlink:href="#DejaVuSans-46" transform="translate(465.5 0)"/>
     <use xlink:href="#DejaVuSans-48" transform="translate(520.484375 0)"/>
     <use xlink:href="#DejaVuSans-3" transform="translate(582.015625 0)"/>
     <use xlink:href="#DejaVuSans-49" transform="translate(613.796875 0)"/>
     <use xlink:href="#DejaVuSans-52" transform="translate(649 0)"/>
     <use xlink:href="#DejaVuSans-4f" transform="translate(710.1875 0)"/>
     <use xlink:href="#DejaVuSans-4f" transform="translate(737.96875 0)"/>
     <use xlink:href="#DejaVuSans-52" transform="translate(765.75 0)"/>
     <use xlink:href="#DejaVuSans-5a" transform="translate(826.9375 0)"/>
     <use xlink:href="#DejaVuSans-56" transform="translate(908.71875 0)"/>
     <use xlink:href="#DejaVuSans-3" transform="translate(960.8125 0)"/>
     <use xlink:href="#DejaVuSans-57" transform="translate(992.59375 0)"/>
     <use xlink:href="#DejaVuSans-4b" transform="translate(1031.796875 0)"/>
     <use xlink:href="#DejaVuSans-48" transform="translate(1095.171875 0)"/>
     <use xlink:href="#DejaVuSans-3" transform="translate(1156.703125 0)"/>
     <use xlink:href="#DejaVuSans-46" transform="translate(1188.484375 0)"/>
     <use xlink:href="#DejaVuSans-44" transform="translate(1243.46875 0)"/>
     <use xlink:href="#DejaVuSans-56" transform="translate(1304.75 0)"/>
     <use xlink:href="#DejaVuSans-48" transform="translate(1356.84375 0)"/>
     <use xlink:href="#DejaVuSans-3" transform="translate(1418.375 0)"/>
     <use xlink:href="#DejaVuSans-46" transform="translate(1450.15625 0)"/>
     <use xlink:href="#DejaVuSans-4f" transform="translate(1505.140625 0)"/>
     <use xlink:href="#DejaVuSans-44" transform="translate(1532.921875 0)"/>
     <use xlink:href="#DejaVuSans-56" transform="translate(1594.203125 0)"/>
     <use xlink:href="#DejaVuSans-56" transform="translate(1646.296875 0)"/>
     <use xlink:href="#DejaVuSans-f" transform="translate(1698.390625 0)"/>
    </g>
    <!-- not the tool -->
    <g transform="translate(341.007712 26.328703) scale(0.08 -0.08)">
     <use xlink:href="#DejaVuSans-51"/>
     <use xlink:href="#DejaVuSans-52" transform="translate(63.375 0)"/>
     <use xlink:href="#DejaVuSans-57" transform="translate(124.5625 0)"/>
     <use xlink:href="#DejaVuSans-3" transform="translate(163.765625 0)"/>
     <use xlink:href="#DejaVuSans-57" transform="translate(195.546875 0)"/>
     <use xlink:href="#DejaVuSans-4b" transform="translate(234.75 0)"/>
     <use xlink:href="#DejaVuSans-48" transform="translate(298.125 0)"/>
     <use xlink:href="#DejaVuSans-3" transform="translate(359.65625 0)"/>
     <use xlink:href="#DejaVuSans-57" transform="translate(391.4375 0)"/>
     <use xlink:href="#DejaVuSans-52" transform="translate(430.640625 0)"/>
     <use xlink:href="#DejaVuSans-52" transform="translate(491.828125 0)"/>
     <use xlink:href="#DejaVuSans-4f" transform="translate(553.015625 0)"/>
    </g>
   </g>
  </g>
 </g>
 <defs>
  <clipPath id="p7257b9930e">
   <rect x="76.489063" y="32.328703" width="195.241558" height="161.28"/>
  </clipPath>
  <clipPath id="peda5bd7eda">
   <rect x="341.007712" y="32.328703" width="134.649351" height="161.28"/>
  </clipPath>
 </defs>
</svg>
